<svg clip-rule="evenodd" fill-rule="evenodd" stroke-linejoin="round" stroke-miterlimit="2" viewBox="0 0 893 637" xmlns="http://www.w3.org/2000/svg"><path d="m1046.02 415.5h-500.22v-284c165.909.252 329.243 1.285 500.22 0z" fill="#fff" fill-rule="nonzero" transform="translate(-153.978 -131.5)"/><path d="m480.906 91.836h322.053v8.053h-322.053z" transform="matrix(1 0 0 .44514 -.229617 54.9526)"/><path d="m480.906 91.836h322.053v8.053h-322.053z" transform="matrix(1 0 0 .44514 1.1261 99.3159)"/><path d="m480.906 91.836h322.053v8.053h-322.053z" transform="matrix(1 0 0 .44514 .518763 145.187)"/><path d="m521.224 79.862h14v32h-14z" fill="#e46948"/><path d="m620.224 126.138h14v32h-14z" fill="#e46948"/><path d="m744.224 172.138h14v32h-14z" fill="#e46948"/><path d="m394.906 326.836h194.053v8.053h-194.053z" fill="#cbcbcb"/><path d="m394.906 353.836h194.053v8.053h-194.053z" fill="#cbcbcb"/><path d="m394.906 380.836h95.053v8.053h-95.053z" fill="#cbcbcb"/><path d="m695.312 326.248661h194.053v8.053h-194.053z" fill="#cbcbcb"/><path d="m695.312 353.248661h194.053v8.053h-194.053z" fill="#cbcbcb"/><path d="m695.312 380.248661h95.053v8.053h-95.053z" fill="#cbcbcb"/><path d="m522.225 381h59v59h-59z" fill="#fff" fill-rule="nonzero"/><path d="m735.203 571.5h-59v-59h59zm-57-2h55v-55h-55z" fill-rule="nonzero" transform="translate(-153.978 -131.5)"/><path d="m830.225 381h59v59h-59z" fill="#fff" fill-rule="nonzero"/><path d="m1043.2 571.5h-58.997v-59h58.997zm-56.997-2h54.997v-55h-54.997z" fill-rule="nonzero" transform="translate(-153.978 -131.5)"/><path d="m703.076 550.695-7.075-9.1 4.114-3.2 3.35 4.307 11.318-11.946 3.785 3.585z" fill="#e46948" fill-rule="nonzero" transform="translate(-153.978 -131.5)"/><path d="m694.906 326.836h194.053v8.053h-194.053z" fill="#e5e5e5"/><path d="m694.906 353.836h194.053v8.053h-194.053z" fill="#e5e5e5"/><path d="m694.906 380.836h95.053v8.053h-95.053z" fill="#e5e5e5"/><path d="m306.2 147.8c-14.3-13-36.4-13.4-51.1-.8-6.847 5.846-11.129 13.489-12.807 21.578-2.512 12.113.814 25.229 10.107 34.822 1 1 2 2 3.1 2.9-1.7 5.6-3.6 11.5-5.8 17.9l31.7 54.1c.2-21.1 1.7-39.4 3.2-53.4.6-5.5 4.2-10.3 9.4-12.2 4.8-1.8 9.3-4.6 13.2-8.4 15.8-15.5 15.7-41.3-1-56.5z" fill="#e46948" fill-rule="nonzero" transform="matrix(.791775 -.243235 .248355 .80844 -84.20929 139.41864)"/><g transform="matrix(.791775 -.243235 .248355 .80844 -84.20929 139.41864)"><circle cx="280.2" cy="176.4" fill="#e46948" r="38.7"/><g fill-rule="nonzero"><path d="m256.2 183.2-8.6 4.9c2.7 3.9 6.2 7.3 10.3 9.9-2.3 7.8-5 16.5-8.3 26l17.5 30-2.9-71.6z" fill="#a52c35" opacity=".5"/><path d="m281 176.6h-.3l-12.2-2.9c-.6-.1-1-.7-.8-1.4.1-.6.7-1 1.4-.8l12.2 2.9c.6.1 1 .7.8 1.4-.1.5-.6.8-1.1.8z" fill="#fff"/><path d="m307.5 182.8h-.3l-7.1-1.7c-.6-.1-1-.7-.8-1.4.1-.6.7-1 1.4-.8l7.1 1.7c.6.1 1 .7.8 1.4-.2.4-.6.8-1.1.8z" fill="#fff"/><path d="m317.2 195c-.8 0-1.7-.1-2.5-.3-2.9-.7-5.3-2.4-6.9-4.9s-2-5.5-1.4-8.4 2.4-5.3 4.9-6.9 5.5-2 8.4-1.4c5.9 1.4 9.6 7.4 8.3 13.3-.7 2.9-2.4 5.3-4.9 6.9-1.9 1.1-3.9 1.7-5.9 1.7zm-.1-19.9c-1.6 0-3.2.5-4.6 1.3-2 1.2-3.4 3.2-3.9 5.5s-.1 4.7 1.1 6.7 3.2 3.4 5.5 3.9 4.7.1 6.7-1.1 3.4-3.2 3.9-5.5c1.1-4.7-1.8-9.5-6.6-10.6-.7-.1-1.4-.2-2.1-.2z" fill="#fff"/><path d="m290.7 188.8c-.8 0-1.7-.1-2.5-.3-2.9-.7-5.3-2.4-6.9-4.9s-2-5.5-1.4-8.4c1.4-5.9 7.4-9.6 13.3-8.3 2.9.7 5.3 2.4 6.9 4.9s2 5.5 1.4 8.4c-.7 2.9-2.4 5.3-4.9 6.9-1.8 1.1-3.9 1.7-5.9 1.7zm0-19.9c-4 0-7.6 2.7-8.6 6.8-.5 2.3-.1 4.7 1.1 6.7s3.2 3.4 5.5 3.9 4.7.1 6.7-1.1 3.4-3.2 3.9-5.5.1-4.7-1.1-6.7-3.2-3.4-5.5-3.9c-.7-.1-1.3-.2-2-.2z" fill="#fff"/><path d="m301.4 195c-.3 0-.5 0-.8-.1-1.1-.3-2.249-1.141-2.649-2.241l-2.154-4.046 3.2-1.947 2.47 4.046 3.037-3.4 2.796 3.188-3.5 3.5c-.7.7-1.5 1-2.4 1z" fill="#f5a59b" transform="matrix(1.08569 0 0 .779672 -26.295 41.8869)"/><path d="m267.6 188.9-7.3-1.7c-4-.9-6.5-5-5.6-9s5-6.5 9-5.6l7.3 1.7z" fill="#e46948" transform="translate(0 1)"/></g></g><g fill-rule="nonzero"><path d="m340.528 541.419c2.191-1.709 3.473-4.337 3.473-7.115 0-2.046-.696-4.033-1.973-5.632-.312-.39-.655-.755-1.026-1.09l-2.689-118.37-19.407 3.465 8.766 115.879c-2.594 3.283-2.585 7.959.02 11.233 3.09 3.941 8.859 4.674 12.836 1.63z" fill="#e46948" transform="translate(-153.978 -131.5)"/><path d="m335.17 387.367c-.235-.057-.472-.108-.712-.153-.841-.158-1.696-.238-2.552-.238-7.116 0-13.131 5.487-13.784 12.573l-.54 5.867 2.12 63.317 20.652-.114 4.37-52.938.989-13.88c.479-6.712-4.003-12.849-10.543-14.434z" fill="#cbcbcb" transform="translate(-153.978 -131.5)"/><path d="m264.245 624.885 11.444-.001 5.443-44.137h-16.889z" fill="#e46948"/><path d="m415.305 752.649 22.536-.001c7.878 0 14.361 6.483 14.362 14.361v.467l-36.898.001z" fill="#28003a" transform="translate(-153.978 -131.5)"/><path d="m87.497 611.492 10.357 4.865 23.693-37.636-15.287-7.179z" fill="#e46948"/><path d="m240.421 738.37 20.398 9.58h.001c7.131 3.35 10.242 11.974 6.893 19.105l-.198.422-33.397-15.685z" fill="#28003a" transform="translate(-153.978 -131.5)"/><path d="m346.581 390.468-24.314-7.151-16.305 41.191 30.322 62.646.572 11.156s-21.332 26.136-23.17 64.361l-8.01 22.026-9.44 20.882-57.023 116.681 23.461 14.799 103.588-172.166 50.892 177.941 21.343 1.195-19.899-224.975-22.017-44.395-9.745-22.017s11.053-24.115-10.346-35.415z" fill="#28003a" transform="translate(-153.978 -131.5)"/><path d="m396.846 542.133c1.266-1.596 1.956-3.574 1.956-5.61 0-2.788-1.292-5.424-3.495-7.132-.395-.306-.815-.58-1.254-.819l-30.448-114.418-18.048 7.932 35.768 110.568c-1.748 3.801-.641 8.343 2.661 10.913 3.93 3.104 9.71 2.46 12.86-1.434z" fill="#e46948" transform="translate(-153.978 -131.5)"/><path d="m355.413 393.66c-.241 0-.483.007-.727.019-7.313.38-13.124 6.501-13.124 13.824 0 .671.049 1.342.146 2.007l.854 5.83 16.95 61.042 20.046-4.967-8.2-52.481-2.303-13.723c-1.113-6.636-6.912-11.548-13.642-11.551z" fill="#cbcbcb" transform="translate(-153.978 -131.5)"/><path d="m535.978 768.5h-381c-.548 0-1-.451-1-1s.452-1 1-1h381c.549 0 1 .451 1 1s-.451 1-1 1z" transform="matrix(1 0 0 .709421 -153.978 91.8098)"/><path d="m311.9 187.6-2.1-.7c.1-.3.2-.6.3-.9.4-1 .6-1.7.6-2.7h2.2c0 1.4-.4 2.4-.8 3.5 0 .2-.1.5-.2.8z" fill="#010101" transform="matrix(.981575 -.191076 .191076 .981575 -131.574 89.4514)"/><path d="m295 184.4-2.1-.7c.1-.3.2-.6.3-.9.4-1 .6-1.7.6-2.7h2.2c0 1.4-.4 2.4-.8 3.5 0 .2-.1.5-.2.8z" fill="#010101" transform="matrix(.981575 -.191076 .191076 .981575 -131.574 89.4514)"/><path d="m929.8 274.341h-.125l-172.261.162-.492.206c-.772.325 1.267.111.492-.206l-173.619-.113-.112-.049h-.125c-2.39.002-4.357 1.968-4.359 4.359v189.312c.002 2.39 1.969 4.356 4.359 4.359h346.242c2.39-.003 4.356-1.969 4.359-4.359v-189.312c-.003-2.391-1.969-4.357-4.359-4.359zm3.113 193.671c0 1.708-1.405 3.113-3.113 3.113h-346.242c-1.708 0-3.113-1.405-3.114-3.113v-189.312c.003-1.663 1.334-3.047 2.996-3.114l173.988.269h-.014c.153-.008.241-.013.283-.015.258-.014-1.213.066-.283.015l172.51-.269c1.659.072 2.986 1.454 2.989 3.114z" transform="matrix(1.41141 0 0 1.44087 -427.608 -394.924)"/></g></svg>