<svg clip-rule="evenodd" fill-rule="evenodd" stroke-linejoin="round" stroke-miterlimit="2" viewBox="0 0 885 632" xmlns="http://www.w3.org/2000/svg"><g transform="matrix(.858512 0 0 .858512 -334.902 37.1735)"><path d="m1046.02 415.5h-500.22v-284c165.909.252 329.243 1.285 500.22 0z" fill="#fff" fill-rule="nonzero" transform="translate(-153.978 -131.5)"/><path d="m480.906 91.836h322.053v8.053h-322.053z" transform="matrix(1 0 0 .44514 -.229617 54.9526)"/><path d="m480.906 91.836h322.053v8.053h-322.053z" transform="matrix(1 0 0 .44514 1.1261 99.3159)"/><path d="m480.906 91.836h322.053v8.053h-322.053z" transform="matrix(1 0 0 .44514 .518763 145.187)"/><g fill="#e46948"><path d="m521.224 79.862h14v32h-14z"/><path d="m620.224 126.138h14v32h-14z"/><path d="m744.224 172.138h14v32h-14z"/></g><path d="m929.8 274.341h-.125l-172.261.162-.492.206c-.772.325 1.267.111.492-.206l-173.619-.113-.112-.049h-.125c-2.39.002-4.357 1.968-4.359 4.359v189.312c.002 2.39 1.969 4.356 4.359 4.359h346.242c2.39-.003 4.356-1.969 4.359-4.359v-189.312c-.003-2.391-1.969-4.357-4.359-4.359zm3.113 193.671c0 1.708-1.405 3.113-3.113 3.113h-346.242c-1.708 0-3.113-1.405-3.114-3.113v-189.312c.003-1.663 1.334-3.047 2.996-3.114l173.988.269h-.014c.153-.008.241-.013.283-.015.258-.014-1.213.066-.283.015l172.51-.269c1.659.072 2.986 1.454 2.989 3.114z" fill-rule="nonzero" transform="matrix(1.41141 0 0 1.44087 -427.608 -394.924)"/></g><g stroke-width=".919695"><path d="m-8.292882006 322.295998014h178.469573835v7.406303835h-178.469573835z" fill="#cbcbcb"/><path d="m-8.292882006 347.127763014h178.469573835v7.406303835h-178.469573835z" fill="#cbcbcb"/><path d="m-8.292882006 371.959528014h87.419768835v7.406303835h-87.419768835z" fill="#cbcbcb"/><path d="m267.988830225 321.7558611405h178.469573835v7.406303835h-178.469573835z" fill="#cbcbcb"/><path d="m267.988830225 346.5876261405h178.469573835v7.406303835h-178.469573835z" fill="#cbcbcb"/><path d="m267.988830225 371.4193911405h87.419768835v7.406303835h-87.419768835z" fill="#cbcbcb"/><path d="m108.80158176 372.110174055h54.262005v54.262005h-54.262005z" fill="#fff" fill-rule="nonzero"/></g><path d="m735.203 571.5h-59v-59h59zm-57-2h55v-55h-55z" fill-rule="nonzero" transform="matrix(.919695 0 0 .919695 -513.098936325 -99.233513445)"/><path d="m392.06764176 372.110174055h54.262005v54.262005h-54.262005z" fill="#fff" fill-rule="nonzero" stroke-width=".919695"/><path d="m1043.2 571.5h-58.997v-59h58.997zm-56.997-2h54.997v-55h-54.997z" fill-rule="nonzero" transform="matrix(.919695 0 0 .919695 -513.098936325 -99.233513445)"/><path d="m703.076 550.695-7.075-9.1 4.114-3.2 3.35 4.307 11.318-11.946 3.785 3.585z" fill="#e46948" fill-rule="nonzero" transform="matrix(.919695 0 0 .919695 -232.41813897 -96.2067972)"/><path d="m267.615617994 322.295998014h178.469573835v7.406303835h-178.469573835z" fill="#e5e5e5" stroke-width=".919695"/><path d="m267.615617994 347.127763014h178.469573835v7.406303835h-178.469573835z" fill="#e5e5e5" stroke-width=".919695"/><path d="m267.615617994 371.959528014h87.419768835v7.406303835h-87.419768835z" fill="#e5e5e5" stroke-width=".919695"/><g transform="matrix(-1 0 0 1 850.673 23.4888)"><path d="m306.2 147.8c-14.3-13-36.4-13.4-51.1-.8-17.1 14.6-18.2 40.4-2.7 56.4 1 1 2 2 3.1 2.9-1.7 5.6-3.6 11.5-5.8 17.9l31.7 54.1c.2-21.1 1.7-39.4 3.2-53.4.6-5.5 4.2-10.3 9.4-12.2 4.8-1.8 9.3-4.6 13.2-8.4 15.8-15.5 15.7-41.3-1-56.5z" fill="#e46948" fill-rule="nonzero" transform="matrix(.771887 -.304684 .313226 .793526 -68.2043 156.33)"/><g transform="matrix(.771887 -.304684 .313226 .793526 -68.2043 156.33)"><circle cx="280.2" cy="176.4" fill="#e46948" r="38.7"/><g fill-rule="nonzero"><path d="m256.2 183.2-8.6 4.9c2.7 3.9 6.2 7.3 10.3 9.9-2.3 7.8-5 16.5-8.3 26l17.5 30-2.9-71.6z" fill="#a52c35" opacity=".5"/><path d="m281 176.6h-.3l-12.2-2.9c-.6-.1-1-.7-.8-1.4.1-.6.7-1 1.4-.8l12.2 2.9c.6.1 1 .7.8 1.4-.1.5-.6.8-1.1.8z" fill="#fff"/><path d="m307.5 182.8h-.3l-7.1-1.7c-.6-.1-1-.7-.8-1.4.1-.6.7-1 1.4-.8l7.1 1.7c.6.1 1 .7.8 1.4-.2.4-.6.8-1.1.8z" fill="#fff"/><path d="m317.2 195c-.8 0-1.7-.1-2.5-.3-2.9-.7-5.3-2.4-6.9-4.9s-2-5.5-1.4-8.4 2.4-5.3 4.9-6.9 5.5-2 8.4-1.4c5.9 1.4 9.6 7.4 8.3 13.3-.7 2.9-2.4 5.3-4.9 6.9-1.9 1.1-3.9 1.7-5.9 1.7zm-.1-19.9c-1.6 0-3.2.5-4.6 1.3-2 1.2-3.4 3.2-3.9 5.5s-.1 4.7 1.1 6.7 3.2 3.4 5.5 3.9 4.7.1 6.7-1.1 3.4-3.2 3.9-5.5c1.1-4.7-1.8-9.5-6.6-10.6-.7-.1-1.4-.2-2.1-.2z" fill="#fff"/><path d="m290.7 188.8c-.8 0-1.7-.1-2.5-.3-2.9-.7-5.3-2.4-6.9-4.9s-2-5.5-1.4-8.4c1.4-5.9 7.4-9.6 13.3-8.3 2.9.7 5.3 2.4 6.9 4.9s2 5.5 1.4 8.4c-.7 2.9-2.4 5.3-4.9 6.9-1.8 1.1-3.9 1.7-5.9 1.7zm0-19.9c-4 0-7.6 2.7-8.6 6.8-.5 2.3-.1 4.7 1.1 6.7s3.2 3.4 5.5 3.9 4.7.1 6.7-1.1 3.4-3.2 3.9-5.5.1-4.7-1.1-6.7-3.2-3.4-5.5-3.9c-.7-.1-1.3-.2-2-.2z" fill="#fff"/><path d="m301.4 195c-.3 0-.5 0-.8-.1-1.1-.3-2.249-1.141-2.649-2.241l-2.154-4.046 3.2-1.947 2.47 4.046 3.037-3.4 2.796 3.188-3.5 3.5c-.7.7-1.5 1-2.4 1z" fill="#f5a59b" transform="matrix(1.08569 0 0 .779672 -26.295 41.8869)"/><path d="m267.6 188.9-7.3-1.7c-4-.9-6.5-5-5.6-9s5-6.5 9-5.6l7.3 1.7z" fill="#e46948" transform="translate(0 1)"/></g></g><g fill-rule="nonzero"><path d="m311.9 187.6-2.1-.7c.1-.3.2-.6.3-.9.4-1 .6-1.7.6-2.7h2.2c0 1.4-.4 2.4-.8 3.5 0 .2-.1.5-.2.8z" fill="#010101" transform="matrix(.771887 -.304684 .313226 .793526 -68.2043 156.33)"/><path d="m295 184.4-2.1-.7c.1-.3.2-.6.3-.9.4-1 .6-1.7.6-2.7h2.2c0 1.4-.4 2.4-.8 3.5 0 .2-.1.5-.2.8z" fill="#010101" transform="matrix(.771887 -.304684 .313226 .793526 -68.2043 156.33)"/><path d="m397.781 556.121c-1.133-1.667-1.738-3.637-1.738-5.652 0-3.959 2.338-7.565 5.952-9.181l-3.081-35.601 16.326 8.848.423 32.452c.415 1.122.627 2.309.627 3.506 0 5.546-4.564 10.11-10.11 10.11-3.369 0-6.524-1.684-8.399-4.482z" fill="#e46948" transform="translate(-158.016 -146.268)"/><path d="m400.875 533.598-.133-.336-18.012-45.503-2.858-86.253.48-.034c.628-.045 1.257-.067 1.886-.067 14.034 0 25.753 11.163 26.435 25.181l2.642 46.374 7.488 59.642z" fill="#28003a" transform="translate(-158.016 -146.268)"/><path d="m127.8 577.505 10.354 6.565 30.247-36.815-15.282-9.688z" fill="#e46948"/><path d="m285.318 718.718 20.391 12.928h.001c7.128 4.52 9.275 14.105 4.756 21.234l-.268.422-33.386-21.166z" fill="#28003a" transform="translate(-158.016 -146.268)"/><path d="m225.692 595.15 12.26-.001 5.832-47.288-18.094.001z" fill="#e46948"/><path d="m380.581 737.415 24.145-.001c8.44.001 15.386 6.946 15.386 15.386v.5l-39.53.002z" fill="#28003a" transform="translate(-158.016 -146.268)"/><path d="m349.019 543.284 28.862 173.602s-5.677 14.195 2.839 16.088c8.517 1.892 27.443-1.893 27.443-1.893s5.678-14.195-2.839-16.087l-16.087-181.389z" fill="#333" transform="translate(-158.016 -146.268)"/><path d="m366.053 546.38-19.996 81.174-50.977 74.02s-18.926 1.893-8.517 12.302c10.409 10.41 15.141 11.356 15.141 11.356s16.087-1.893 15.141-9.463l62.673-73.771 29.118-98.457z" fill="#333" transform="translate(-158.016 -146.268)"/><path d="m348.603 553.529-4.829-27.558c-7.272-7.6 6.469-26.391 8.001-28.432l-.899-11.686c-.766-.131-1.467-.513-1.993-1.085-4.511-4.6-4.208-22.751-4.193-23.521l-4.978-51.785 12.386-7.226 31.322-1.01 15.296 13.257 14.733 135.352-.526.029z" fill="#28003a" transform="translate(-158.016 -146.268)"/><path d="m359.443 563.194c-3.037-1.812-4.903-5.098-4.903-8.635 0-2.42.874-4.761 2.46-6.589l-17.825-30.972 18.535 1.128 14.086 29.238c1.916 1.898 2.994 4.485 2.994 7.182 0 5.546-4.563 10.11-10.11 10.11-1.846 0-3.657-.505-5.237-1.462z" fill="#e46948" transform="translate(-158.016 -146.268)"/><path d="m343.658 534.233-15.377-35.644-2.57-72.811c-.179-4.869 2.373-9.451 6.607-11.862l17.739-10.84 3.827 76.544 11.447 45.747z" fill="#28003a" transform="translate(-158.016 -146.268)"/><path d="m196.224 305.464-1.228 43.811 15.242 32.126-14.014-77.102" fill-opacity=".2"/><path d="m540.016 753.732h-381c-.549 0-1-.451-1-1s.451-1 1-1h381c.548 0 1 .451 1 1s-.452 1-1 1z" transform="matrix(1 0 0 .55853 -161.989 187.405)"/></g></g></svg>