<svg width="197" height="28" viewBox="0 0 197 28" xmlns="http://www.w3.org/2000/svg">
    <g fill="#FFF" fill-rule="evenodd">
        <g fill-rule="nonzero">
            <path d="M12.444.33L.551 7.206v13.748l11.893 6.874 11.893-6.874V7.205L12.444.33zm10.79 19.991l-10.79 6.242-10.79-6.242V7.758l10.79-6.242 10.79 6.242v12.563z"></path>
            <path d="M17.09 6.257H7.798l-1.102 4.74h11.499zM9.451 17.556v-3.16l-2.756-1.74-3.15 2.292 4.252 7.506H9.53l1.969-1.896v-.948z"></path>
            <path d="M15.437 11.709H9.451l1.024 2.686-.315 3.003h4.568l-.236-3.003z"></path>
            <path d="M18.194 12.657l-2.678 1.738v3.16l-2.127 2.055v.948l2.048 1.817h1.654l4.253-7.427z"></path>
            <g>
                <path d="M41.23 20.163c-3.307 0-5.788-2.607-5.788-5.807s2.481-5.926 5.789-5.926c2.126 0 3.426.83 4.49 1.896l-1.655 1.778c-.827-.83-1.654-1.423-2.953-1.423-1.89 0-3.19 1.66-3.19 3.556 0 2.015 1.418 3.674 3.426 3.674 1.181 0 2.127-.592 2.954-1.422l1.535 1.54c-1.063 1.186-2.362 2.134-4.607 2.134zM50.8 19.807h-2.599V8.548h2.6v2.489c.708-1.66 2.008-2.844 4.016-2.726v2.726h-.118c-2.245 0-3.78 1.422-3.78 4.504v4.266H50.8zM68.049 8.548l-5.553 14.696H59.78l1.418-3.437L56.47 8.548h2.717l3.19 8.178 2.953-8.178zM76.082 20.044c-1.89 0-3.071-.948-3.78-2.014v5.214h-2.6V8.548h2.6v1.896c.827-1.185 2.008-2.133 3.78-2.133 2.717 0 5.198 2.133 5.198 5.926.119 3.793-2.48 5.807-5.198 5.807zm-.59-9.481c-1.773 0-3.308 1.422-3.308 3.674s1.535 3.674 3.308 3.674c1.772 0 3.19-1.422 3.19-3.674.117-2.252-1.418-3.674-3.19-3.674zM87.187 10.8v5.57c0 .949.473 1.423 1.418 1.423h1.063v2.251h-1.772c-1.89 0-3.19-.83-3.19-3.318V10.8H83.29V8.548h1.417V5.467h2.6v3.081h2.362V10.8h-2.48zM97.82 20.163c-3.426 0-6.025-2.607-6.025-5.807S94.394 8.43 97.82 8.43s6.025 2.607 6.025 5.926c0 3.081-2.599 5.807-6.025 5.807zm0-9.6c-2.126 0-3.426 1.66-3.426 3.556 0 2.014 1.418 3.674 3.426 3.674 2.127 0 3.426-1.66 3.426-3.556 0-2.015-1.418-3.674-3.426-3.674zM116.486 20.163c-3.308 0-5.789-2.607-5.789-5.807s2.481-5.926 5.79-5.926c2.126 0 3.425.83 4.488 1.896l-1.653 1.778c-.827-.83-1.654-1.423-2.954-1.423-1.89 0-3.19 1.66-3.19 3.556 0 2.015 1.418 3.674 3.426 3.674 1.182 0 2.127-.592 2.954-1.422l1.536 1.54c-1.064 1.186-2.363 2.134-4.608 2.134zM128.536 20.163c-3.426 0-6.025-2.607-6.025-5.807s2.6-5.926 6.025-5.926c3.427 0 6.026 2.607 6.026 5.926 0 3.081-2.6 5.807-6.026 5.807zm0-9.6c-2.126 0-3.426 1.66-3.426 3.556 0 2.014 1.418 3.674 3.426 3.674 2.127 0 3.427-1.66 3.427-3.556 0-2.015-1.418-3.674-3.427-3.674zM149.802 8.311c2.48 0 3.898 1.54 3.898 4.267v7.23h-2.48v-6.4c0-1.778-.828-2.727-2.245-2.727-1.418 0-2.363.949-2.363 2.845v6.4h-2.6v-6.4c0-1.778-.826-2.726-2.244-2.726-1.418 0-2.363 1.067-2.363 2.844v6.4h-2.599V8.785h2.6v1.66c.708-.949 1.653-1.897 3.425-1.897 1.654 0 2.718.83 3.308 2.015.827-1.422 2.009-2.252 3.663-2.252zM108.57 17.793v1.303s0 .119-.117.119l-1.182.71h-.118l-1.181-.71-.118-.119v-1.303s0-.119.118-.119l1.181-.711h.118l1.182.711c.118 0 .118 0 .118.119z"></path>
            </g>
        </g>
        <path d="M172.802 9.934c0 3.288-2.717 4.976-5.93 4.976h-3.664v5.342h-1.703V5.112h5.649c3.407 0 5.648 1.816 5.648 4.822m-1.724.065c0-2.185-1.618-3.309-4.054-3.309h-3.816v6.662h3.73c2.501 0 4.14-1.341 4.14-3.353m7.762.39c-1.316 0-2.35.345-3.386.822l-.495-1.363c1.228-.562 2.436-.93 4.053-.93 3.04 0 4.743 1.557 4.743 4.5v6.834h-1.595v-1.687c-.776 1.017-2.07 1.925-4.032 1.925-2.07 0-4.162-1.168-4.162-3.504 0-2.38 1.941-3.634 4.766-3.634 1.422 0 2.436.195 3.428.476v-.39c0-2.011-1.23-3.05-3.32-3.05m.064 4.197c1.358 0 2.458.238 3.277.476v1.081c0 1.774-1.682 3.029-3.73 3.029-1.51 0-2.803-.822-2.803-2.25 0-1.427 1.165-2.336 3.256-2.336zm10.224 9.637l1.469-3.826-5.133-11.285h1.833l4.053 9.323 3.579-9.323h1.768l-6.12 15.111h-1.45z"></path>
    </g>
</svg>