<svg viewBox="0 0 405.87168568 163" xmlns="http://www.w3.org/2000/svg"><path d="m3.91 12.87-2.33-7.28q-.24-.61-.46-.84-.22-.24-.66-.33-.05-.01-.17-.03-.11-.02-.14-.08-.04-.07-.04-.21 0-.17.09-.22.09-.06.29-.06 1.05 0 1.6.32.54.33.86 1.15l1.6 5.13h.06l1.7-6.53h.73l2.28 6.53h.05l1.58-5.28q.05-.21.05-.37 0-.19-.14-.25-.14-.07-.53-.07h-.08q-.14 0-.2-.05-.05-.05-.07-.24 0-.13.06-.22.07-.09.18-.09.91.04 1.53.04.26 0 1.02-.03l.29-.01q.13 0 .19.09.06.09.06.22-.01.19-.07.24-.05.05-.19.05-.62 0-.96.21-.34.2-.5.74l-2.29 7.47h-.66l-2.27-6.68-1.81 6.68zm13 .02q-.95 0-1.69-.45-.74-.46-1.16-1.2-.41-.75-.41-1.59 0-1.05.49-1.83.49-.78 1.25-1.19.75-.41 1.52-.41.95 0 1.7.45.74.46 1.15 1.21.41.74.41 1.58 0 1.05-.49 1.83-.5.78-1.26 1.19-.75.41-1.51.41zm0-.51q.95 0 1.39-.82.45-.81.45-2.1 0-1.2-.46-1.96-.45-.77-1.38-.77-.96 0-1.4.8-.43.8-.43 2.09 0 1.2.45 1.98.44.78 1.38.78zm4.52.39q-.09 0-.16-.09-.06-.08-.06-.19.01-.18.08-.22.07-.03.26-.03.36 0 .51-.13.16-.13.18-.29.02-.17.02-.54v-3.2q0-.37-.02-.53-.02-.17-.18-.3-.15-.12-.51-.12-.17 0-.26-.05-.08-.05-.08-.23 0-.09.06-.16.05-.08.16-.1.91-.14 1.5-.36.24-.07.32-.08h.05q.22 0 .22.26v.88h.04q.41-.37.66-.58.25-.2.65-.35.4-.14.95-.14.95 0 1.51.57.56.57.56 1.51v2.98q0 .37.03.54.02.16.18.29.15.13.52.13h.08q.11 0 .17.04.05.04.07.21 0 .11-.06.19-.07.09-.17.09-.81-.04-1.47-.04-.63 0-1.45.04-.1 0-.16-.09-.07-.08-.07-.19.02-.18.08-.22.06-.03.25-.03.36 0 .51-.13.16-.13.19-.29.02-.17.02-.54v-2.96q0-.65-.4-.99-.41-.34-.94-.34-.64 0-1.11.31-.46.32-.63.65v3.33q0 .37.03.54.03.16.18.29.16.13.52.13h.09q.11 0 .16.04.06.04.07.21 0 .11-.05.19-.06.09-.17.09-.81-.04-1.47-.04-.63 0-1.46.04zm8.39 0q-.1 0-.16-.09-.06-.08-.06-.19.01-.18.08-.22.07-.03.25-.03.37 0 .52-.13.15-.13.18-.29.02-.17.02-.54v-3.2q0-.37-.02-.53-.03-.17-.18-.3-.15-.12-.52-.12-.17 0-.25-.05-.08-.05-.08-.23 0-.09.05-.16.06-.08.17-.1.88-.12 1.51-.36.2-.07.32-.08h.05q.22 0 .22.26v4.87q0 .37.03.54.03.16.18.29.15.13.52.13h.08q.11 0 .17.04.06.04.07.21 0 .11-.06.19-.05.09-.16.09-.82-.04-1.47-.04-.63 0-1.46.04zm1.39-8.18q-.4 0-.66-.24-.27-.25-.27-.61 0-.32.32-.58.33-.25.73-.25.35 0 .58.25.22.24.22.62 0 .34-.27.57-.26.24-.65.24zm2.75 8.18q-.09 0-.16-.09-.06-.08-.06-.19.01-.18.08-.22.07-.03.26-.03.36 0 .51-.13.16-.13.18-.29.02-.17.02-.54v-3.2q0-.37-.02-.53-.02-.17-.18-.3-.15-.12-.51-.12-.17 0-.26-.05-.08-.05-.08-.23 0-.09.06-.16.05-.08.16-.1.91-.14 1.5-.36.24-.07.32-.08h.05q.22 0 .22.26v.88h.04q.41-.37.66-.58.25-.2.65-.35.4-.14.95-.14.95 0 1.51.57.56.57.56 1.51v2.98q0 .37.03.54.02.16.18.29.15.13.52.13h.08q.11 0 .17.04.05.04.07.21 0 .11-.06.19-.07.09-.17.09-.81-.04-1.47-.04-.63 0-1.45.04-.1 0-.16-.09-.07-.08-.07-.19.02-.18.08-.22.06-.03.25-.03.36 0 .51-.13.16-.13.19-.29.02-.17.02-.54v-2.96q0-.65-.4-.99-.41-.34-.94-.34-.64 0-1.11.31-.46.32-.63.65v3.33q0 .37.03.54.03.16.18.29.16.13.52.13h.09q.11 0 .16.04.06.04.07.21 0 .11-.05.19-.06.09-.17.09-.81-.04-1.47-.04-.63 0-1.46.04zm11.04 3.01q-2.96 0-2.96-1.68 0-.48.3-.83.3-.35.78-.35.2 0 .36.08.17.08.28.18.1.11.1.16 0 .02-.12.14-.12.11-.21.29-.09.17-.09.41 0 1.08 1.85 1.08 1.06 0 1.64-.37.57-.37.57-1.1 0-.45-.33-.67-.34-.23-.84-.29-.51-.06-1.32-.08-.99-.02-1.41-.09-.55-.1-.85-.35-.3-.26-.3-.79 0-.54.38-.91.39-.38 1.1-.38-.82-.32-1.16-.8-.34-.48-.34-1.09 0-.6.35-1.09.34-.49.96-.77.61-.28 1.4-.28 1 0 1.55.28l1.92-.36h.03q.23 0 .23.33 0 .2-.06.37-.06.17-.15.17l-1.38-.06v.03q.24.24.4.63.17.39.17.74 0 .64-.37 1.14-.37.5-.97.76-.6.27-1.26.27h-.62q-.73 0-1.05.14-.33.14-.33.46 0 .27.18.39.18.13.63.16l1.92.07q1.47.05 2.12.47.65.41.65 1.25 0 1.09-1.02 1.72-1.03.62-2.73.62zm.14-5.69q.65 0 1.05-.46.4-.47.4-1.3 0-.77-.41-1.23-.41-.46-1.06-.46-.63 0-1.03.44-.41.45-.41 1.22 0 .84.41 1.32.4.47 1.05.47zm4.69 2.68q-.12 0-.18-.09-.06-.09-.06-.22.01-.21.08-.25.07-.04.27-.04.4 0 .6-.15.2-.15.25-.36.04-.22.06-.57v-5.56q-.02-.35-.06-.57-.05-.21-.25-.36-.2-.15-.6-.15h-.09q-.14 0-.19-.05-.06-.05-.07-.24 0-.13.06-.22.06-.09.18-.09.91.04 1.66.04h4.05q.36 0 .36.34l.04 1.96q0 .12-.12.2-.13.08-.25.08-.17 0-.3-.06-.14-.07-.15-.19-.1-.69-.23-1.05-.14-.35-.39-.53-.26-.17-.74-.19h-1.53v3.64h2.51q.11.02.17.11.05.09.05.21 0 .12-.05.2-.06.08-.17.08h-2.51v2.4q.02.35.07.57.05.21.24.36.2.15.6.15h.09q.12 0 .19.05.06.04.07.24 0 .13-.06.22-.06.09-.19.09-.89-.04-1.73-.04-.77 0-1.68.04zm7.19 0q-.1 0-.16-.09-.06-.08-.06-.19.01-.18.08-.22.07-.03.25-.03.37 0 .52-.13.16-.13.18-.29.02-.17.02-.54v-3.2q0-.37-.02-.53-.02-.17-.18-.3-.15-.12-.52-.12-.16 0-.25-.05-.08-.05-.08-.23 0-.09.05-.16.06-.08.17-.1.88-.12 1.51-.36.2-.07.33-.08h.04q.22 0 .22.26v4.87q0 .37.03.54.03.16.18.29.16.13.52.13h.08q.12 0 .17.04.06.04.07.21 0 .11-.05.19-.06.09-.17.09-.81-.04-1.47-.04-.63 0-1.46.04zm1.39-8.18q-.39 0-.66-.24-.27-.25-.27-.61 0-.32.33-.58.32-.25.72-.25.35 0 .58.25.22.24.22.62 0 .34-.26.57-.27.24-.66.24zm2.76 8.18q-.1 0-.16-.09-.07-.08-.07-.19.02-.18.09-.22.07-.03.25-.03.36 0 .52-.13.15-.13.17-.29.02-.17.02-.54v-3.2q0-.37-.02-.53-.02-.17-.17-.3-.16-.12-.52-.12-.17 0-.25-.05-.09-.05-.09-.23 0-.09.06-.16.05-.08.17-.1.91-.14 1.49-.36.24-.07.33-.08h.04q.22 0 .22.26v.88h.04q.41-.37.66-.58.25-.2.65-.35.4-.14.95-.14.95 0 1.51.57.56.57.56 1.51v2.98q0 .37.03.54.03.16.18.29.15.13.52.13h.08q.11 0 .17.04.06.04.07.21 0 .11-.06.19-.07.09-.16.09-.82-.04-1.47-.04-.63 0-1.46.04-.1 0-.16-.09-.06-.08-.06-.19.01-.18.07-.22.07-.03.25-.03.36 0 .52-.13.15-.13.18-.29.03-.17.03-.54v-2.96q0-.65-.41-.99-.41-.34-.94-.34-.64 0-1.1.31-.47.32-.63.65v3.33q0 .37.02.54.03.16.19.29.15.13.51.13h.09q.11 0 .17.04.05.04.07.21 0 .11-.06.19-.06.09-.17.09-.81-.04-1.47-.04-.63 0-1.45.04zm11.21.12q-.78 0-1.46-.42-.67-.43-1.07-1.19-.41-.77-.41-1.73 0-.87.42-1.64.42-.77 1.16-1.23.74-.46 1.65-.46.44 0 .87.1.44.11.76.29h.04v-2.14q0-.37-.02-.54-.02-.16-.18-.29-.15-.13-.51-.13-.17 0-.26-.05-.08-.04-.08-.23 0-.08.06-.16.05-.07.16-.09.89-.12 1.52-.36.19-.07.32-.09h.04q.22 0 .22.27v8.64q0 .82 1.1.82.23 0 .23.23 0 .19-.23.24l-2.23.15q-.1 0-.11-.06-.02-.07-.02-.22v-.56h-.04q-.36.38-.89.62-.52.23-1.04.23zm.48-.7q.49 0 .83-.18.34-.19.65-.52v-3.69q-.13-.41-.53-.74-.39-.34-1-.34-.54 0-.98.34-.44.35-.7 1-.25.66-.25 1.56 0 1.08.51 1.83.51.74 1.47.74zm7.98.7q-1.05 0-1.79-.44-.73-.45-1.11-1.22-.38-.77-.38-1.71 0-.83.39-1.59.38-.76 1.09-1.24.72-.47 1.64-.47 1.25 0 1.92.63.67.64.77 1.72 0 .46-.25.63-.25.17-.73.17h-3.4q0 1.3.54 2.06.54.76 1.67.76.6 0 1.02-.25.42-.26.8-.88.07-.07.14-.07.1 0 .17.06.14.08.14.25 0 .08-.03.12-.43.7-1.1 1.09-.66.38-1.5.38zm-1.85-4.06h2.28q.71 0 .76-.58 0-.65-.35-1.1-.35-.44-1-.44-.71 0-1.17.56-.47.57-.52 1.56zm5.71 3.94q-.1 0-.16-.09-.06-.08-.06-.19.01-.18.08-.22.07-.03.25-.03.37 0 .52-.13.15-.13.18-.29.02-.17.02-.54v-3.2q0-.37-.02-.53-.03-.17-.18-.3-.15-.12-.52-.12-.17 0-.25-.05-.08-.05-.08-.23 0-.09.05-.16.06-.08.17-.1.91-.14 1.5-.36.24-.07.32-.08h.04q.23 0 .23.26v.87h.04q.49-.49.99-.78.51-.28.91-.28.46 0 .74.34.27.34.27.79 0 .39-.24.7-.24.31-.66.31-.19 0-.34-.09-.15-.08-.16-.14.01-.02.14-.17.13-.15.13-.34 0-.26-.14-.41-.13-.15-.35-.15-.24 0-.61.23-.36.23-.71.58v3.41q0 .37.03.54.03.16.18.29.15.13.52.13h.08q.11 0 .17.04.06.04.07.21 0 .11-.06.19-.05.09-.16.09-.82-.04-1.47-.04-.63 0-1.46.04z" fill="#fff" transform="matrix(4.52830189 0 0 4.52830189 -.498108 91.543398)"/><g fill="#e46948" transform="matrix(1.43792938 0 0 1.43792938 123.303393 -9.014706)"><path d="m102.923 54.276-6.311 6.407-41.002-41.05-41.026 41.05-6.395-6.407 47.395-47.389.071.068.249-.071 19.377 19.196v-13.606h8v22.35z"/><path d="m47.281 40.474h17v29h-17z"/></g></svg>