<?xml version="1.0" encoding="UTF-8" standalone="no"?>
<!DOCTYPE svg PUBLIC "-//W3C//DTD SVG 1.1//EN" "http://www.w3.org/Graphics/SVG/1.1/DTD/svg11.dtd">
<svg width="100%" height="100%" viewBox="0 0 406 163" version="1.1" xmlns="http://www.w3.org/2000/svg" xmlns:xlink="http://www.w3.org/1999/xlink" xml:space="preserve" xmlns:serif="http://www.serif.com/" style="fill-rule:evenodd;clip-rule:evenodd;stroke-linejoin:round;stroke-miterlimit:2;">
    <g transform="matrix(4.5283,0,0,4.5283,-0.498108,91.5434)">
        <path d="M3.91,12.87L1.58,5.59C1.42,5.183 1.267,4.903 1.12,4.75C0.973,4.59 0.753,4.48 0.46,4.42C0.427,4.413 0.37,4.403 0.29,4.39C0.217,4.377 0.17,4.35 0.15,4.31C0.123,4.263 0.11,4.193 0.11,4.1C0.11,3.987 0.14,3.913 0.2,3.88C0.26,3.84 0.357,3.82 0.49,3.82C1.19,3.82 1.723,3.927 2.09,4.14C2.45,4.36 2.737,4.743 2.95,5.29L4.55,10.42L4.61,10.42L6.31,3.89L7.04,3.89L9.32,10.42L9.37,10.42L10.95,5.14C10.983,5 11,4.877 11,4.77C11,4.643 10.953,4.56 10.86,4.52C10.767,4.473 10.59,4.45 10.33,4.45L10.25,4.45C10.157,4.45 10.09,4.433 10.05,4.4C10.017,4.367 9.993,4.287 9.98,4.16C9.98,4.073 10,4 10.04,3.94C10.087,3.88 10.147,3.85 10.22,3.85C10.827,3.877 11.337,3.89 11.75,3.89C11.923,3.89 12.263,3.88 12.77,3.86L13.06,3.85C13.147,3.85 13.21,3.88 13.25,3.94C13.29,4 13.31,4.073 13.31,4.16C13.303,4.287 13.28,4.367 13.24,4.4C13.207,4.433 13.143,4.45 13.05,4.45C12.637,4.45 12.317,4.52 12.09,4.66C11.863,4.793 11.697,5.04 11.59,5.4L9.3,12.87L8.64,12.87L6.37,6.19L4.56,12.87L3.91,12.87ZM16.91,12.89C16.277,12.89 15.713,12.74 15.22,12.44C14.727,12.133 14.34,11.733 14.06,11.24C13.787,10.74 13.65,10.21 13.65,9.65C13.65,8.95 13.813,8.34 14.14,7.82C14.467,7.3 14.883,6.903 15.39,6.63C15.89,6.357 16.397,6.22 16.91,6.22C17.543,6.22 18.11,6.37 18.61,6.67C19.103,6.977 19.487,7.38 19.76,7.88C20.033,8.373 20.17,8.9 20.17,9.46C20.17,10.16 20.007,10.77 19.68,11.29C19.347,11.81 18.927,12.207 18.42,12.48C17.92,12.753 17.417,12.89 16.91,12.89ZM16.91,12.38C17.543,12.38 18.007,12.107 18.3,11.56C18.6,11.02 18.75,10.32 18.75,9.46C18.75,8.66 18.597,8.007 18.29,7.5C17.99,6.987 17.53,6.73 16.91,6.73C16.27,6.73 15.803,6.997 15.51,7.53C15.223,8.063 15.08,8.76 15.08,9.62C15.08,10.42 15.23,11.08 15.53,11.6C15.823,12.12 16.283,12.38 16.91,12.38ZM21.43,12.77C21.37,12.77 21.317,12.74 21.27,12.68C21.23,12.627 21.21,12.563 21.21,12.49C21.217,12.37 21.243,12.297 21.29,12.27C21.337,12.25 21.423,12.24 21.55,12.24C21.79,12.24 21.96,12.197 22.06,12.11C22.167,12.023 22.227,11.927 22.24,11.82C22.253,11.707 22.26,11.527 22.26,11.28L22.26,8.08C22.26,7.833 22.253,7.657 22.24,7.55C22.227,7.437 22.167,7.337 22.06,7.25C21.96,7.17 21.79,7.13 21.55,7.13C21.437,7.13 21.35,7.113 21.29,7.08C21.237,7.047 21.21,6.97 21.21,6.85C21.21,6.79 21.23,6.737 21.27,6.69C21.303,6.637 21.357,6.603 21.43,6.59C22.037,6.497 22.537,6.377 22.93,6.23C23.09,6.183 23.197,6.157 23.25,6.15L23.3,6.15C23.447,6.15 23.52,6.237 23.52,6.41L23.52,7.29L23.56,7.29C23.833,7.043 24.053,6.85 24.22,6.71C24.387,6.577 24.603,6.46 24.87,6.36C25.137,6.267 25.453,6.22 25.82,6.22C26.453,6.22 26.957,6.41 27.33,6.79C27.703,7.17 27.89,7.673 27.89,8.3L27.89,11.28C27.89,11.527 27.9,11.707 27.92,11.82C27.933,11.927 27.993,12.023 28.1,12.11C28.2,12.197 28.373,12.24 28.62,12.24L28.7,12.24C28.773,12.24 28.83,12.253 28.87,12.28C28.903,12.307 28.927,12.377 28.94,12.49C28.94,12.563 28.92,12.627 28.88,12.68C28.833,12.74 28.777,12.77 28.71,12.77C28.17,12.743 27.68,12.73 27.24,12.73C26.82,12.73 26.337,12.743 25.79,12.77C25.723,12.77 25.67,12.74 25.63,12.68C25.583,12.627 25.56,12.563 25.56,12.49C25.573,12.37 25.6,12.297 25.64,12.27C25.68,12.25 25.763,12.24 25.89,12.24C26.13,12.24 26.3,12.197 26.4,12.11C26.507,12.023 26.57,11.927 26.59,11.82C26.603,11.707 26.61,11.527 26.61,11.28L26.61,8.32C26.61,7.887 26.477,7.557 26.21,7.33C25.937,7.103 25.623,6.99 25.27,6.99C24.843,6.99 24.473,7.093 24.16,7.3C23.853,7.513 23.643,7.73 23.53,7.95L23.53,11.28C23.53,11.527 23.54,11.707 23.56,11.82C23.58,11.927 23.64,12.023 23.74,12.11C23.847,12.197 24.02,12.24 24.26,12.24L24.35,12.24C24.423,12.24 24.477,12.253 24.51,12.28C24.55,12.307 24.573,12.377 24.58,12.49C24.58,12.563 24.563,12.627 24.53,12.68C24.49,12.74 24.433,12.77 24.36,12.77C23.82,12.743 23.33,12.73 22.89,12.73C22.47,12.73 21.983,12.743 21.43,12.77ZM29.82,12.77C29.753,12.77 29.7,12.74 29.66,12.68C29.62,12.627 29.6,12.563 29.6,12.49C29.607,12.37 29.633,12.297 29.68,12.27C29.727,12.25 29.81,12.24 29.93,12.24C30.177,12.24 30.35,12.197 30.45,12.11C30.55,12.023 30.61,11.927 30.63,11.82C30.643,11.707 30.65,11.527 30.65,11.28L30.65,8.08C30.65,7.833 30.643,7.657 30.63,7.55C30.61,7.437 30.55,7.337 30.45,7.25C30.35,7.17 30.177,7.13 29.93,7.13C29.817,7.13 29.733,7.113 29.68,7.08C29.627,7.047 29.6,6.97 29.6,6.85C29.6,6.79 29.617,6.737 29.65,6.69C29.69,6.637 29.747,6.603 29.82,6.59C30.407,6.51 30.91,6.39 31.33,6.23C31.463,6.183 31.57,6.157 31.65,6.15L31.7,6.15C31.847,6.15 31.92,6.237 31.92,6.41L31.92,11.28C31.92,11.527 31.93,11.707 31.95,11.82C31.97,11.927 32.03,12.023 32.13,12.11C32.23,12.197 32.403,12.24 32.65,12.24L32.73,12.24C32.803,12.24 32.86,12.253 32.9,12.28C32.94,12.307 32.963,12.377 32.97,12.49C32.97,12.563 32.95,12.627 32.91,12.68C32.877,12.74 32.823,12.77 32.75,12.77C32.203,12.743 31.713,12.73 31.28,12.73C30.86,12.73 30.373,12.743 29.82,12.77ZM31.21,4.59C30.943,4.59 30.723,4.51 30.55,4.35C30.37,4.183 30.28,3.98 30.28,3.74C30.28,3.527 30.387,3.333 30.6,3.16C30.82,2.993 31.063,2.91 31.33,2.91C31.563,2.91 31.757,2.993 31.91,3.16C32.057,3.32 32.13,3.527 32.13,3.78C32.13,4.007 32.04,4.197 31.86,4.35C31.687,4.51 31.47,4.59 31.21,4.59ZM33.96,12.77C33.9,12.77 33.847,12.74 33.8,12.68C33.76,12.627 33.74,12.563 33.74,12.49C33.747,12.37 33.773,12.297 33.82,12.27C33.867,12.25 33.953,12.24 34.08,12.24C34.32,12.24 34.49,12.197 34.59,12.11C34.697,12.023 34.757,11.927 34.77,11.82C34.783,11.707 34.79,11.527 34.79,11.28L34.79,8.08C34.79,7.833 34.783,7.657 34.77,7.55C34.757,7.437 34.697,7.337 34.59,7.25C34.49,7.17 34.32,7.13 34.08,7.13C33.967,7.13 33.88,7.113 33.82,7.08C33.767,7.047 33.74,6.97 33.74,6.85C33.74,6.79 33.76,6.737 33.8,6.69C33.833,6.637 33.887,6.603 33.96,6.59C34.567,6.497 35.067,6.377 35.46,6.23C35.62,6.183 35.727,6.157 35.78,6.15L35.83,6.15C35.977,6.15 36.05,6.237 36.05,6.41L36.05,7.29L36.09,7.29C36.363,7.043 36.583,6.85 36.75,6.71C36.917,6.577 37.133,6.46 37.4,6.36C37.667,6.267 37.983,6.22 38.35,6.22C38.983,6.22 39.487,6.41 39.86,6.79C40.233,7.17 40.42,7.673 40.42,8.3L40.42,11.28C40.42,11.527 40.43,11.707 40.45,11.82C40.463,11.927 40.523,12.023 40.63,12.11C40.73,12.197 40.903,12.24 41.15,12.24L41.23,12.24C41.303,12.24 41.36,12.253 41.4,12.28C41.433,12.307 41.457,12.377 41.47,12.49C41.47,12.563 41.45,12.627 41.41,12.68C41.363,12.74 41.307,12.77 41.24,12.77C40.7,12.743 40.21,12.73 39.77,12.73C39.35,12.73 38.867,12.743 38.32,12.77C38.253,12.77 38.2,12.74 38.16,12.68C38.113,12.627 38.09,12.563 38.09,12.49C38.103,12.37 38.13,12.297 38.17,12.27C38.21,12.25 38.293,12.24 38.42,12.24C38.66,12.24 38.83,12.197 38.93,12.11C39.037,12.023 39.1,11.927 39.12,11.82C39.133,11.707 39.14,11.527 39.14,11.28L39.14,8.32C39.14,7.887 39.007,7.557 38.74,7.33C38.467,7.103 38.153,6.99 37.8,6.99C37.373,6.99 37.003,7.093 36.69,7.3C36.383,7.513 36.173,7.73 36.06,7.95L36.06,11.28C36.06,11.527 36.07,11.707 36.09,11.82C36.11,11.927 36.17,12.023 36.27,12.11C36.377,12.197 36.55,12.24 36.79,12.24L36.88,12.24C36.953,12.24 37.007,12.253 37.04,12.28C37.08,12.307 37.103,12.377 37.11,12.49C37.11,12.563 37.093,12.627 37.06,12.68C37.02,12.74 36.963,12.77 36.89,12.77C36.35,12.743 35.86,12.73 35.42,12.73C35,12.73 34.513,12.743 33.96,12.77ZM45,15.78C43.027,15.78 42.04,15.22 42.04,14.1C42.04,13.78 42.14,13.503 42.34,13.27C42.54,13.037 42.8,12.92 43.12,12.92C43.253,12.92 43.373,12.947 43.48,13C43.593,13.053 43.687,13.113 43.76,13.18C43.827,13.253 43.86,13.307 43.86,13.34C43.86,13.353 43.82,13.4 43.74,13.48C43.66,13.553 43.59,13.65 43.53,13.77C43.47,13.883 43.44,14.02 43.44,14.18C43.44,14.9 44.057,15.26 45.29,15.26C45.997,15.26 46.543,15.137 46.93,14.89C47.31,14.643 47.5,14.277 47.5,13.79C47.5,13.49 47.39,13.267 47.17,13.12C46.943,12.967 46.663,12.87 46.33,12.83C45.99,12.79 45.55,12.763 45.01,12.75C44.35,12.737 43.88,12.707 43.6,12.66C43.233,12.593 42.95,12.477 42.75,12.31C42.55,12.137 42.45,11.873 42.45,11.52C42.45,11.16 42.577,10.857 42.83,10.61C43.09,10.357 43.457,10.23 43.93,10.23C43.383,10.017 42.997,9.75 42.77,9.43C42.543,9.11 42.43,8.747 42.43,8.34C42.43,7.94 42.547,7.577 42.78,7.25C43.007,6.923 43.327,6.667 43.74,6.48C44.147,6.293 44.613,6.2 45.14,6.2C45.807,6.2 46.323,6.293 46.69,6.48L48.61,6.12L48.64,6.12C48.793,6.12 48.87,6.23 48.87,6.45C48.87,6.583 48.85,6.707 48.81,6.82C48.77,6.933 48.72,6.99 48.66,6.99L47.28,6.93L47.28,6.96C47.44,7.12 47.573,7.33 47.68,7.59C47.793,7.85 47.85,8.097 47.85,8.33C47.85,8.757 47.727,9.137 47.48,9.47C47.233,9.803 46.91,10.057 46.51,10.23C46.11,10.41 45.69,10.5 45.25,10.5L44.63,10.5C44.143,10.5 43.793,10.547 43.58,10.64C43.36,10.733 43.25,10.887 43.25,11.1C43.25,11.28 43.31,11.41 43.43,11.49C43.55,11.577 43.76,11.63 44.06,11.65L45.98,11.72C46.96,11.753 47.667,11.91 48.1,12.19C48.533,12.463 48.75,12.88 48.75,13.44C48.75,14.167 48.41,14.74 47.73,15.16C47.043,15.573 46.133,15.78 45,15.78ZM45.14,10.09C45.573,10.09 45.923,9.937 46.19,9.63C46.457,9.317 46.59,8.883 46.59,8.33C46.59,7.817 46.453,7.407 46.18,7.1C45.907,6.793 45.553,6.64 45.12,6.64C44.7,6.64 44.357,6.787 44.09,7.08C43.817,7.38 43.68,7.787 43.68,8.3C43.68,8.86 43.817,9.3 44.09,9.62C44.357,9.933 44.707,10.09 45.14,10.09ZM49.83,12.77C49.75,12.77 49.69,12.74 49.65,12.68C49.61,12.62 49.59,12.547 49.59,12.46C49.597,12.32 49.623,12.237 49.67,12.21C49.717,12.183 49.807,12.17 49.94,12.17C50.207,12.17 50.407,12.12 50.54,12.02C50.673,11.92 50.757,11.8 50.79,11.66C50.817,11.513 50.837,11.323 50.85,11.09L50.85,5.53C50.837,5.297 50.817,5.107 50.79,4.96C50.757,4.82 50.673,4.7 50.54,4.6C50.407,4.5 50.207,4.45 49.94,4.45L49.85,4.45C49.757,4.45 49.693,4.433 49.66,4.4C49.62,4.367 49.597,4.287 49.59,4.16C49.59,4.073 49.61,4 49.65,3.94C49.69,3.88 49.75,3.85 49.83,3.85C50.437,3.877 50.99,3.89 51.49,3.89L55.54,3.89C55.78,3.89 55.9,4.003 55.9,4.23L55.94,6.19C55.94,6.27 55.9,6.337 55.82,6.39C55.733,6.443 55.65,6.47 55.57,6.47C55.457,6.47 55.357,6.45 55.27,6.41C55.177,6.363 55.127,6.3 55.12,6.22C55.053,5.76 54.977,5.41 54.89,5.17C54.797,4.937 54.667,4.76 54.5,4.64C54.327,4.527 54.08,4.463 53.76,4.45L52.23,4.45L52.23,8.09L54.74,8.09C54.813,8.103 54.87,8.14 54.91,8.2C54.943,8.26 54.96,8.33 54.96,8.41C54.96,8.49 54.943,8.557 54.91,8.61C54.87,8.663 54.813,8.69 54.74,8.69L52.23,8.69L52.23,11.09C52.243,11.323 52.267,11.513 52.3,11.66C52.333,11.8 52.413,11.92 52.54,12.02C52.673,12.12 52.873,12.17 53.14,12.17L53.23,12.17C53.31,12.17 53.373,12.187 53.42,12.22C53.46,12.247 53.483,12.327 53.49,12.46C53.49,12.547 53.47,12.62 53.43,12.68C53.39,12.74 53.327,12.77 53.24,12.77C52.647,12.743 52.07,12.73 51.51,12.73C50.997,12.73 50.437,12.743 49.83,12.77ZM57.02,12.77C56.953,12.77 56.9,12.74 56.86,12.68C56.82,12.627 56.8,12.563 56.8,12.49C56.807,12.37 56.833,12.297 56.88,12.27C56.927,12.25 57.01,12.24 57.13,12.24C57.377,12.24 57.55,12.197 57.65,12.11C57.757,12.023 57.817,11.927 57.83,11.82C57.843,11.707 57.85,11.527 57.85,11.28L57.85,8.08C57.85,7.833 57.843,7.657 57.83,7.55C57.817,7.437 57.757,7.337 57.65,7.25C57.55,7.17 57.377,7.13 57.13,7.13C57.023,7.13 56.94,7.113 56.88,7.08C56.827,7.047 56.8,6.97 56.8,6.85C56.8,6.79 56.817,6.737 56.85,6.69C56.89,6.637 56.947,6.603 57.02,6.59C57.607,6.51 58.11,6.39 58.53,6.23C58.663,6.183 58.773,6.157 58.86,6.15L58.9,6.15C59.047,6.15 59.12,6.237 59.12,6.41L59.12,11.28C59.12,11.527 59.13,11.707 59.15,11.82C59.17,11.927 59.23,12.023 59.33,12.11C59.437,12.197 59.61,12.24 59.85,12.24L59.93,12.24C60.01,12.24 60.067,12.253 60.1,12.28C60.14,12.307 60.163,12.377 60.17,12.49C60.17,12.563 60.153,12.627 60.12,12.68C60.08,12.74 60.023,12.77 59.95,12.77C59.41,12.743 58.92,12.73 58.48,12.73C58.06,12.73 57.573,12.743 57.02,12.77ZM58.41,4.59C58.15,4.59 57.93,4.51 57.75,4.35C57.57,4.183 57.48,3.98 57.48,3.74C57.48,3.527 57.59,3.333 57.81,3.16C58.023,2.993 58.263,2.91 58.53,2.91C58.763,2.91 58.957,2.993 59.11,3.16C59.257,3.32 59.33,3.527 59.33,3.78C59.33,4.007 59.243,4.197 59.07,4.35C58.89,4.51 58.67,4.59 58.41,4.59ZM61.17,12.77C61.103,12.77 61.05,12.74 61.01,12.68C60.963,12.627 60.94,12.563 60.94,12.49C60.953,12.37 60.983,12.297 61.03,12.27C61.077,12.25 61.16,12.24 61.28,12.24C61.52,12.24 61.693,12.197 61.8,12.11C61.9,12.023 61.957,11.927 61.97,11.82C61.983,11.707 61.99,11.527 61.99,11.28L61.99,8.08C61.99,7.833 61.983,7.657 61.97,7.55C61.957,7.437 61.9,7.337 61.8,7.25C61.693,7.17 61.52,7.13 61.28,7.13C61.167,7.13 61.083,7.113 61.03,7.08C60.97,7.047 60.94,6.97 60.94,6.85C60.94,6.79 60.96,6.737 61,6.69C61.033,6.637 61.09,6.603 61.17,6.59C61.777,6.497 62.273,6.377 62.66,6.23C62.82,6.183 62.93,6.157 62.99,6.15L63.03,6.15C63.177,6.15 63.25,6.237 63.25,6.41L63.25,7.29L63.29,7.29C63.563,7.043 63.783,6.85 63.95,6.71C64.117,6.577 64.333,6.46 64.6,6.36C64.867,6.267 65.183,6.22 65.55,6.22C66.183,6.22 66.687,6.41 67.06,6.79C67.433,7.17 67.62,7.673 67.62,8.3L67.62,11.28C67.62,11.527 67.63,11.707 67.65,11.82C67.67,11.927 67.73,12.023 67.83,12.11C67.93,12.197 68.103,12.24 68.35,12.24L68.43,12.24C68.503,12.24 68.56,12.253 68.6,12.28C68.64,12.307 68.663,12.377 68.67,12.49C68.67,12.563 68.65,12.627 68.61,12.68C68.563,12.74 68.51,12.77 68.45,12.77C67.903,12.743 67.413,12.73 66.98,12.73C66.56,12.73 66.073,12.743 65.52,12.77C65.453,12.77 65.4,12.74 65.36,12.68C65.32,12.627 65.3,12.563 65.3,12.49C65.307,12.37 65.33,12.297 65.37,12.27C65.417,12.25 65.5,12.24 65.62,12.24C65.86,12.24 66.033,12.197 66.14,12.11C66.24,12.023 66.3,11.927 66.32,11.82C66.34,11.707 66.35,11.527 66.35,11.28L66.35,8.32C66.35,7.887 66.213,7.557 65.94,7.33C65.667,7.103 65.353,6.99 65,6.99C64.573,6.99 64.207,7.093 63.9,7.3C63.587,7.513 63.377,7.73 63.27,7.95L63.27,11.28C63.27,11.527 63.277,11.707 63.29,11.82C63.31,11.927 63.373,12.023 63.48,12.11C63.58,12.197 63.75,12.24 63.99,12.24L64.08,12.24C64.153,12.24 64.21,12.253 64.25,12.28C64.283,12.307 64.307,12.377 64.32,12.49C64.32,12.563 64.3,12.627 64.26,12.68C64.22,12.74 64.163,12.77 64.09,12.77C63.55,12.743 63.06,12.73 62.62,12.73C62.2,12.73 61.717,12.743 61.17,12.77ZM72.38,12.89C71.86,12.89 71.373,12.75 70.92,12.47C70.473,12.183 70.117,11.787 69.85,11.28C69.577,10.767 69.44,10.19 69.44,9.55C69.44,8.97 69.58,8.423 69.86,7.91C70.14,7.397 70.527,6.987 71.02,6.68C71.513,6.373 72.063,6.22 72.67,6.22C72.963,6.22 73.253,6.253 73.54,6.32C73.833,6.393 74.087,6.49 74.3,6.61L74.34,6.61L74.34,4.47C74.34,4.223 74.333,4.043 74.32,3.93C74.307,3.823 74.247,3.727 74.14,3.64C74.04,3.553 73.87,3.51 73.63,3.51C73.517,3.51 73.43,3.493 73.37,3.46C73.317,3.433 73.29,3.357 73.29,3.23C73.29,3.177 73.31,3.123 73.35,3.07C73.383,3.023 73.437,2.993 73.51,2.98C74.103,2.9 74.61,2.78 75.03,2.62C75.157,2.573 75.263,2.543 75.35,2.53L75.39,2.53C75.537,2.53 75.61,2.62 75.61,2.8L75.61,11.44C75.61,11.987 75.977,12.26 76.71,12.26C76.863,12.26 76.94,12.337 76.94,12.49C76.94,12.617 76.863,12.697 76.71,12.73L74.48,12.88C74.413,12.88 74.377,12.86 74.37,12.82C74.357,12.773 74.35,12.7 74.35,12.6L74.35,12.04L74.31,12.04C74.07,12.293 73.773,12.5 73.42,12.66C73.073,12.813 72.727,12.89 72.38,12.89ZM72.86,12.19C73.187,12.19 73.463,12.13 73.69,12.01C73.917,11.883 74.133,11.71 74.34,11.49L74.34,7.8C74.253,7.527 74.077,7.28 73.81,7.06C73.55,6.833 73.217,6.72 72.81,6.72C72.45,6.72 72.123,6.833 71.83,7.06C71.537,7.293 71.303,7.627 71.13,8.06C70.963,8.5 70.88,9.02 70.88,9.62C70.88,10.34 71.05,10.95 71.39,11.45C71.73,11.943 72.22,12.19 72.86,12.19ZM80.84,12.89C80.14,12.89 79.543,12.743 79.05,12.45C78.563,12.15 78.193,11.743 77.94,11.23C77.687,10.717 77.56,10.147 77.56,9.52C77.56,8.967 77.69,8.437 77.95,7.93C78.203,7.423 78.567,7.01 79.04,6.69C79.52,6.377 80.067,6.22 80.68,6.22C81.513,6.22 82.153,6.43 82.6,6.85C83.047,7.277 83.303,7.85 83.37,8.57C83.37,8.877 83.287,9.087 83.12,9.2C82.953,9.313 82.71,9.37 82.39,9.37L78.99,9.37C78.99,10.237 79.17,10.923 79.53,11.43C79.89,11.937 80.447,12.19 81.2,12.19C81.6,12.19 81.94,12.107 82.22,11.94C82.5,11.767 82.767,11.473 83.02,11.06C83.067,11.013 83.113,10.99 83.16,10.99C83.227,10.99 83.283,11.01 83.33,11.05C83.423,11.103 83.47,11.187 83.47,11.3C83.47,11.353 83.46,11.393 83.44,11.42C83.153,11.887 82.787,12.25 82.34,12.51C81.9,12.763 81.4,12.89 80.84,12.89ZM78.99,8.83L81.27,8.83C81.743,8.83 81.997,8.637 82.03,8.25C82.03,7.817 81.913,7.45 81.68,7.15C81.447,6.857 81.113,6.71 80.68,6.71C80.207,6.71 79.817,6.897 79.51,7.27C79.197,7.65 79.023,8.17 78.99,8.83ZM84.7,12.77C84.633,12.77 84.58,12.74 84.54,12.68C84.5,12.627 84.48,12.563 84.48,12.49C84.487,12.37 84.513,12.297 84.56,12.27C84.607,12.25 84.69,12.24 84.81,12.24C85.057,12.24 85.23,12.197 85.33,12.11C85.43,12.023 85.49,11.927 85.51,11.82C85.523,11.707 85.53,11.527 85.53,11.28L85.53,8.08C85.53,7.833 85.523,7.657 85.51,7.55C85.49,7.437 85.43,7.337 85.33,7.25C85.23,7.17 85.057,7.13 84.81,7.13C84.697,7.13 84.613,7.113 84.56,7.08C84.507,7.047 84.48,6.97 84.48,6.85C84.48,6.79 84.497,6.737 84.53,6.69C84.57,6.637 84.627,6.603 84.7,6.59C85.307,6.497 85.807,6.377 86.2,6.23C86.36,6.183 86.467,6.157 86.52,6.15L86.56,6.15C86.713,6.15 86.79,6.237 86.79,6.41L86.79,7.28L86.83,7.28C87.157,6.953 87.487,6.693 87.82,6.5C88.16,6.313 88.463,6.22 88.73,6.22C89.037,6.22 89.283,6.333 89.47,6.56C89.65,6.787 89.74,7.05 89.74,7.35C89.74,7.61 89.66,7.843 89.5,8.05C89.34,8.257 89.12,8.36 88.84,8.36C88.713,8.36 88.6,8.33 88.5,8.27C88.4,8.217 88.347,8.17 88.34,8.13C88.347,8.117 88.393,8.06 88.48,7.96C88.567,7.86 88.61,7.747 88.61,7.62C88.61,7.447 88.563,7.31 88.47,7.21C88.383,7.11 88.267,7.06 88.12,7.06C87.96,7.06 87.757,7.137 87.51,7.29C87.27,7.443 87.033,7.637 86.8,7.87L86.8,11.28C86.8,11.527 86.81,11.707 86.83,11.82C86.85,11.927 86.91,12.023 87.01,12.11C87.11,12.197 87.283,12.24 87.53,12.24L87.61,12.24C87.683,12.24 87.74,12.253 87.78,12.28C87.82,12.307 87.843,12.377 87.85,12.49C87.85,12.563 87.83,12.627 87.79,12.68C87.757,12.74 87.703,12.77 87.63,12.77C87.083,12.743 86.593,12.73 86.16,12.73C85.74,12.73 85.253,12.743 84.7,12.77Z" style="fill-rule:nonzero;"/>
    </g>
    <g transform="matrix(1.43793,0,0,1.43793,123.303,-9.01471)">
        <path d="M102.923,54.276L96.612,60.683L55.61,19.633L14.584,60.683L8.189,54.276L55.584,6.887L55.655,6.955L55.904,6.884L75.281,26.08L75.281,12.474L83.281,12.474L83.281,34.824L102.923,54.276Z" style="fill:rgb(228,105,72);fill-rule:nonzero;"/>
        <rect x="47.281" y="40.474" width="17" height="29" style="fill:rgb(228,105,72);fill-rule:nonzero;"/>
    </g>
</svg>
