<svg clip-rule="evenodd" fill-rule="evenodd" stroke-linejoin="round" stroke-miterlimit="2" viewBox="0 0 1500 940" xmlns="http://www.w3.org/2000/svg"><g transform="matrix(1.16921 0 0 1.16921 -34.377410966 -150.18309479052)"><path d="m65.6 409.4h356.9v473.2h-356.9z" fill="#fff"/><path d="m423.3 883.4h-358.4v-474.8h358.4zm-356.9-1.6h355.4v-471.7h-355.4z" fill="#010101" fill-rule="nonzero"/></g><g fill="#010101"><path d="m295.105967034 429.27738120948h112.010318v1.753815h-112.010318z" stroke-width="1.16921"/><path d="m378.4 582.3h-97.3v-125.4h97.3zm-95.8-1.5h94.3v-122.4h-94.3z" fill-rule="nonzero" transform="matrix(1.16921 0 0 1.16921 -34.377410966 -150.18309479052)"/><path d="m350.292679034 430.09582820948h1.753815v99.616692h-1.753815z" stroke-width="1.16921"/><path d="m206.947533034 619.39092720948h200.285673v1.753815h-200.285673z" stroke-width="1.16921"/><path d="m378.4 790.9h-172.8v-171.5h172.8zm-171.3-1.5h169.8v-168.5h-169.8z" fill-rule="nonzero" transform="matrix(1.16921 0 0 1.16921 -34.377410966 -150.18309479052)"/><path d="m262.017324034 574.96094720948h1.753815v198.7657h-1.753815z" stroke-width="1.16921"/><path d="m94.820294034 429.27738120948h112.010318v1.753815h-112.010318z" stroke-width="1.16921"/><path d="m207.1 582.3h-97.3v-125.4h97.3zm-95.8-1.5h94.3v-122.4h-94.3z" fill-rule="nonzero" transform="matrix(1.16921 0 0 1.16921 -34.377410966 -150.18309479052)"/><path d="m150.007006034 430.09582820948h1.753815v99.616692h-1.753815z" stroke-width="1.16921"/><path d="m207.1 883.4h-97.3v-264h97.3zm-95.8-1.6h94.3v-260.9h-94.3z" fill-rule="nonzero" transform="matrix(1.16921 0 0 1.16921 -34.377410966 -150.18309479052)"/><path d="m158.4 705.1c-13.2 0-24-10.8-24-24s10.8-24 24-24 24 10.8 24 24-10.7 24-24 24zm0-46.5c-12.4 0-22.5 10.1-22.5 22.5s10.1 22.5 22.5 22.5 22.5-10.1 22.5-22.5-10-22.5-22.5-22.5z" fill-rule="nonzero" transform="matrix(1.16921 0 0 1.16921 -34.377410966 -150.18309479052)"/><path d="m1728.9 883.4h-1664l.018-46.96 1.482-.04v45.4h1662.5z" fill-rule="nonzero" transform="matrix(.944988 0 0 .872738 -19.8405 112.423)"/></g><g fill-rule="nonzero" transform="matrix(1.3602460656 0 0 1.541344692 480.94393874 -478.4702376)"><path d="m487.7 794.6c-.6 19.6-15.1 36.5-34.4 39.9-25.1 4.5-47.8-13.8-49.5-38.5-.3-4.2.1-8.2.9-12.1 3.5-15.4-1-31.3-10.5-43.8-5-6.5-8.1-14.6-8.5-23.4-.6-13.3 5-25.4 14.2-33.5.9-.8 1.8-1.5 2.8-2.2 9-6.6 15.1-16.4 17.7-27.2 3.1-12.9.8-26.6-6.6-37.6-5-7.4-7.7-16.4-7.1-26.1 1.3-20.9 18.3-37.9 39.2-39.3 24.4-1.6 44.7 17.8 44.7 41.9 0 3.2-.4 6.4-1.1 9.4-3.5 15.3.9 31.1 10.4 43.6 4.9 6.5 8.1 14.4 8.5 23.1.6 13.3-5 25.4-14.2 33.5-.9.8-1.8 1.5-2.8 2.2-9 6.6-15.1 16.4-17.7 27.2-3.1 12.9-.8 26.6 6.6 37.6 5 7.4 7.7 16.4 7.1 26.1.6-9.7-1.9-18.37-7.1-26.1-7.4-11-8.577-22.174-6.6-37.6 2.6-10.8 8.7-20.6 17.7-27.2 1-.7.181.653 1.081-.047 4.293-8.004-21.779 22.489-18.781 27.247" fill="#fff" transform="matrix(1.00193 0 0 1 -.744932 0)"/><path d="m445.6 835.9c-9.5 0-18.6-3.1-26.2-9.1-9.6-7.5-15.5-18.7-16.3-30.8-.3-4.1 0-8.3 1-12.3 3.3-14.5-.5-30.2-10.4-43.2-5.2-6.9-8.2-15.1-8.6-23.8-.6-13 4.7-25.5 14.5-34.1.9-.8 1.8-1.6 2.8-2.3 8.6-6.4 14.8-15.9 17.4-26.8 3.1-12.9.7-26.4-6.5-37-5.3-7.8-7.8-17-7.2-26.6 1.3-21.4 18.5-38.6 39.9-40 12-.8 23.3 3.3 32 11.5 8.6 8.1 13.5 19.4 13.5 31.2 0 3.2-.4 6.5-1.1 9.6-3.3 14.4.5 30.1 10.3 43 5.2 6.8 8.2 15 8.7 23.6.6 13-4.7 25.5-14.5 34.1-.9.8-1.9 1.6-2.8 2.3-8.6 6.4-14.8 15.9-17.4 26.8-.9 3.7-1.3 7.4-1.3 11.2 0 9.2 2.7 18.2 7.8 25.8 4.8 7.1 7.3 15.3 7.3 23.8v1.8c-.6 20-15.3 37.1-35 40.6-2.7.5-5.4.7-7.9.7zm3.1-284.4c-.9 0-1.8 0-2.7.1-20.7 1.3-37.2 17.9-38.5 38.6-.6 9.2 1.8 18.1 6.9 25.6 7.4 11 9.8 24.9 6.7 38.2-2.7 11.2-9 21-18 27.6-.9.7-1.9 1.4-2.7 2.2-9.5 8.3-14.6 20.3-14 32.9.4 8.4 3.3 16.3 8.3 23 10.1 13.3 14 29.5 10.6 44.4-.9 3.9-1.2 7.9-.9 11.9.8 11.7 6.5 22.5 15.7 29.8 9.4 7.3 21 10.2 32.8 8.1 18.7-3.3 32.8-19.4 33.8-38.3.1-.9.1-1.8.1-2.6 0-8.3-2.4-16.2-7-23-5.3-7.8-8-17.1-8-26.6 0-3.8.4-7.7 1.4-11.5 2.7-11.2 9-21 18-27.6.9-.7 1.8-1.4 2.7-2.2 9-7.9 14-19.1 14-30.9v-2c-.5-8.3-3.4-16.1-8.4-22.7-10.1-13.2-14-29.4-10.6-44.2.7-3 1-6.1 1-9.2 0-11.5-4.6-22.2-13-30.1-7.7-7.6-17.6-11.5-28.2-11.5z" fill="#010101"/></g><path d="m447.6 882.6h-1.5v-99.3c0-19.8 0-30.7-3.7-43-2.1-6.8-3.2-15-3.4-23.6-.2-12.9 1.8-25.2 5.7-33.8.4-.8.7-1.6 1.1-2.3 3.4-6.4 5.9-16 6.9-26.9 1.2-13 .3-26.6-2.6-37.3-2.1-7.8-3.1-16.9-2.8-26.3h1.5c-.2 9.3.7 18.2 2.8 25.9 2.9 10.9 3.9 24.7 2.6 37.8-1 11.1-3.6 20.9-7.1 27.5-.4.7-.7 1.4-1.1 2.2-3.8 8.4-5.8 20.5-5.6 33.2.2 8.5 1.3 16.5 3.3 23.2 3.8 12.5 3.8 23.5 3.8 43.5z" fill="#010101" fill-rule="nonzero" transform="matrix(1.3602460656 0 0 1.541344692 480.94393874 -478.4702376)"/><path d="m449.2 615.7h26.2v1.5h-26.2z" fill="#010101" transform="matrix(.9867222792 -1.060904505 .9362578914 1.1180887188 76.4502398 272.8761078)"/><path d="m443.3 792.1h26.2v1.5h-26.2z" fill="#010101" transform="matrix(.9867222792 -1.060904505 .9362578914 1.1180887188 -90.9213286 341.2527324)"/><path d="m429.5 692.8h1.5v26.2h-1.5z" fill="#010101" transform="matrix(.9363933828 -1.117934067 .9865867878 1.0610591568 -33.123982 341.4977118)"/><g transform="translate(15.5708 -14.8786)"><path d="m337.4 871.3h66.6v1.5h-66.6z" fill="#010101" transform="matrix(.3817 -.9243 .9243 .3817 -576.873 881.823)"/><path d="m237.8 939.7c-44 0-79.7-35.8-79.7-79.7s35.8-79.7 79.7-79.7 79.7 35.8 79.7 79.7-35.7 79.7-79.7 79.7zm0-150.5c-39 0-70.7 31.7-70.7 70.7s31.7 70.7 70.7 70.7 70.7-31.7 70.7-70.7c.1-38.9-31.6-70.7-70.7-70.7z" fill="#eb927a" fill-rule="nonzero"/><path d="m460.3 939.7c-44 0-79.7-35.8-79.7-79.7s35.8-79.7 79.7-79.7 79.7 35.8 79.7 79.7-35.8 79.7-79.7 79.7zm0-150.5c-39 0-70.7 31.7-70.7 70.7s31.7 70.7 70.7 70.7 70.7-31.7 70.7-70.7c0-38.9-31.7-70.7-70.7-70.7z" fill="#eb927a" fill-rule="nonzero"/><g fill="#010101"><path d="m364.9 873.1c-18.9 0-34.7-11.7-42.2-31.5l-37.7-98.2 1.4-.5 37.7 98.2c7.9 21 25.5 32.5 45.9 30.2l26.8-95.4 64.8 84.6-90.9 12.2c-1.9.3-3.9.4-5.8.4zm32.6-93.9-25.8 91.9 87.2-11.7z" fill-rule="nonzero"/><path d="m334.9 824.1h98.1v1.5h-98.1z" transform="matrix(.2696 -.963 .963 .2696 -513.802 972.218)"/><path d="m389.1 766.2h22.1v1.5h-22.1z" transform="matrix(.2696 -.963 .963 .2696 -446.269 945.552)"/></g><circle cx="370.7" cy="872" fill="#fff" r="18.3"/><path d="m370.7 891.1c-10.5 0-19.1-8.6-19.1-19.1s8.6-19.1 19.1-19.1 19.1 8.6 19.1 19.1c-.1 10.5-8.6 19.1-19.1 19.1zm0-36.6c-9.7 0-17.6 7.9-17.6 17.6s7.9 17.6 17.6 17.6 17.6-7.9 17.6-17.6-8-17.6-17.6-17.6z" fill="#010101" fill-rule="nonzero"/><path d="m460.3 871.5c-6.3 0-11.5-5.2-11.5-11.5s5.2-11.5 11.5-11.5 11.5 5.2 11.5 11.5-5.2 11.5-11.5 11.5zm0-21.5c-5.5 0-10 4.5-10 10s4.5 10 10 10 10-4.5 10-10-4.5-10-10-10z" fill="#010101" fill-rule="nonzero"/><path d="m238.5 860.3-1.4-.6 57.1-139.6c.8-1.9 2.7-3.2 4.8-3.2h10.7v1.5h-10.7c-1.5 0-2.8.9-3.4 2.3z" fill="#010101" fill-rule="nonzero"/></g><path d="m398.3708 740.6214h32.3v1.5h-32.3z" fill="#010101"/><path d="m306.2 147.8c-14.3-13-36.4-13.4-51.1-.8-17.1 14.6-18.2 40.4-2.7 56.4 1 1 2 2 3.1 2.9-1.7 5.6-3.6 11.5-5.8 17.9l31.7 54.1c.2-21.1 1.7-39.4 3.2-53.4.6-5.5 4.2-10.3 9.4-12.2 4.8-1.8 9.3-4.6 13.2-8.4 15.8-15.5 15.7-41.3-1-56.5z" fill="#e46948" fill-rule="nonzero" transform="matrix(-.74147156465 -.29267823166 -.3008836427 .7622579015 910.7715163384 448.360468864)"/><g transform="matrix(-.74147156465 -.29267823166 -.3008836427 .7622579015 910.7715163384 448.360468864)"><circle cx="280.2" cy="176.4" fill="#e46948" r="38.7"/><g fill-rule="nonzero"><path d="m256.2 183.2-8.6 4.9c2.7 3.9 6.2 7.3 10.3 9.9-2.3 7.8-5 16.5-8.3 26l17.5 30-2.9-71.6z" fill="#a52c35" fill-opacity=".5"/><path d="m281 176.6h-.3l-12.2-2.9c-.6-.1-1-.7-.8-1.4.1-.6.7-1 1.4-.8l12.2 2.9c.6.1 1 .7.8 1.4-.1.5-.6.8-1.1.8z" fill="#fff"/><path d="m307.5 182.8h-.3l-7.1-1.7c-.6-.1-1-.7-.8-1.4.1-.6.7-1 1.4-.8l7.1 1.7c.6.1 1 .7.8 1.4-.2.4-.6.8-1.1.8z" fill="#fff"/><path d="m317.2 195c-.8 0-1.7-.1-2.5-.3-2.9-.7-5.3-2.4-6.9-4.9s-2-5.5-1.4-8.4 2.4-5.3 4.9-6.9 5.5-2 8.4-1.4c5.9 1.4 9.6 7.4 8.3 13.3-.7 2.9-2.4 5.3-4.9 6.9-1.9 1.1-3.9 1.7-5.9 1.7zm-.1-19.9c-1.6 0-3.2.5-4.6 1.3-2 1.2-3.4 3.2-3.9 5.5s-.1 4.7 1.1 6.7 3.2 3.4 5.5 3.9 4.7.1 6.7-1.1 3.4-3.2 3.9-5.5c1.1-4.7-1.8-9.5-6.6-10.6-.7-.1-1.4-.2-2.1-.2z" fill="#fff" transform="translate(.021368 -.127851)"/><path d="m290.7 188.8c-.8 0-1.7-.1-2.5-.3-2.9-.7-5.3-2.4-6.9-4.9s-2-5.5-1.4-8.4c1.4-5.9 7.4-9.6 13.3-8.3 2.9.7 5.3 2.4 6.9 4.9s2 5.5 1.4 8.4c-.7 2.9-2.4 5.3-4.9 6.9-1.8 1.1-3.9 1.7-5.9 1.7zm0-19.9c-4 0-7.6 2.7-8.6 6.8-.5 2.3-.1 4.7 1.1 6.7s3.2 3.4 5.5 3.9 4.7.1 6.7-1.1 3.4-3.2 3.9-5.5.1-4.7-1.1-6.7-3.2-3.4-5.5-3.9c-.7-.1-1.3-.2-2-.2z" fill="#fff"/><path d="m301.4 195c-.3 0-.5 0-.8-.1-1.1-.3-2.249-1.141-2.649-2.241l-2.154-4.046 3.2-1.947 2.47 4.046 3.037-3.4 2.796 3.188-3.5 3.5c-.7.7-1.5 1-2.4 1z" fill="#f5a59b" transform="matrix(1.08569 0 0 .779672 -26.295 41.8869)"/><path d="m267.6 188.9-7.3-1.7c-4-.9-6.5-5-5.6-9s5-6.5 9-5.6l7.3 1.7z" fill="#e46948" transform="translate(0 1)"/></g></g><g fill-rule="nonzero" transform="matrix(-.960596 0 0 .960596 848.8132664576 299.249072976)"><path d="m311.9 187.6-2.1-.7c.1-.3.2-.6.3-.9.4-1 .6-1.7.6-2.7h2.2c0 1.4-.4 2.4-.8 3.5 0 .2-.1.5-.2.8z" fill="#010101" transform="matrix(.771887 -.304684 .313226 .793526 -62.7481 154.698)"/><path d="m295 184.4-2.1-.7c.1-.3.2-.6.3-.9.4-1 .6-1.7.6-2.7h2.2c0 1.4-.4 2.4-.8 3.5 0 .2-.1.5-.2.8z" fill="#010101" transform="matrix(.771887 -.304684 .313226 .793526 -68.2043 156.33)"/><path d="m397.781 556.121c-1.133-1.667-1.738-3.637-1.738-5.652 0-3.959 2.338-7.565 5.952-9.181l-3.081-35.601 16.326 8.848.423 32.452c.415 1.122.627 2.309.627 3.506 0 5.546-4.564 10.11-10.11 10.11-3.369 0-6.524-1.684-8.399-4.482z" fill="#e46948" transform="translate(-158.016 -146.268)"/><path d="m400.875 533.598-.133-.336-18.012-45.503-2.858-86.253.48-.034c.628-.045 1.257-.067 1.886-.067 14.034 0 25.753 11.163 26.435 25.181l2.642 46.374 7.488 59.642z" fill="#28003a" transform="translate(-158.016 -146.268)"/><path d="m127.8 577.505 10.354 6.565 30.247-36.815-15.282-9.688z" fill="#e46948"/><path d="m285.318 718.718 20.391 12.928h.001c7.128 4.52 9.275 14.105 4.756 21.234l-.268.422-33.386-21.166z" fill="#28003a" transform="translate(-158.016 -146.268)"/><path d="m225.692 595.15 12.26-.001 5.832-47.288-18.094.001z" fill="#e46948"/><g transform="translate(-158.016 -146.268)"><path d="m380.581 737.415 24.145-.001c8.44.001 15.386 6.946 15.386 15.386v.5l-39.53.002z" fill="#28003a"/><path d="m349.019 543.284 28.862 173.602s-5.677 14.195 2.839 16.088c8.517 1.892 27.443-1.893 27.443-1.893s5.678-14.195-2.839-16.087l-16.087-181.389z" fill="#333"/><path d="m366.053 546.38-19.996 81.174-50.977 74.02s-18.926 1.893-8.517 12.302c10.409 10.41 15.141 11.356 15.141 11.356s16.087-1.893 15.141-9.463l62.673-73.771 29.118-98.457z" fill="#333"/><path d="m348.603 553.529-4.829-27.558c-7.272-7.6 6.469-26.391 8.001-28.432l-.899-11.686c-.766-.131-1.467-.513-1.993-1.085-4.511-4.6-4.208-22.751-4.193-23.521l-4.978-51.785 12.386-7.226 31.322-1.01 15.296 13.257 14.733 135.352-.526.029z" fill="#28003a"/><path d="m359.443 563.194c-3.037-1.812-4.903-5.098-4.903-8.635 0-2.42.874-4.761 2.46-6.589l-17.825-30.972 18.535 1.128 14.086 29.238c1.916 1.898 2.994 4.485 2.994 7.182 0 5.546-4.563 10.11-10.11 10.11-1.846 0-3.657-.505-5.237-1.462z" fill="#e46948"/><path d="m343.658 534.233-15.377-35.644-2.57-72.811c-.179-4.869 2.373-9.451 6.607-11.862l17.739-10.84 3.827 76.544 11.447 45.747z" fill="#28003a"/></g><path d="m196.224 305.464-1.228 43.811 15.242 32.126-14.014-77.102" fill-opacity=".2"/></g></svg>