<?xml version="1.0" encoding="UTF-8" standalone="no"?>
<!DOCTYPE svg PUBLIC "-//W3C//DTD SVG 1.1//EN" "http://www.w3.org/Graphics/SVG/1.1/DTD/svg11.dtd">
<svg width="100%" height="100%" viewBox="0 0 1730 940" version="1.1" xmlns="http://www.w3.org/2000/svg" xmlns:xlink="http://www.w3.org/1999/xlink" xml:space="preserve" xmlns:serif="http://www.serif.com/" style="fill-rule:evenodd;clip-rule:evenodd;stroke-linejoin:round;stroke-miterlimit:2;">
    <g>
        <g>
            <rect x="65.6" y="409.4" width="356.9" height="473.2" style="fill:white;"/>
            <path d="M423.3,883.4L64.9,883.4L64.9,408.6L423.3,408.6L423.3,883.4ZM66.4,881.8L421.8,881.8L421.8,410.1L66.4,410.1L66.4,881.8Z" style="fill:rgb(1,1,1);fill-rule:nonzero;"/>
        </g>
        <g>
            <g>
                <rect x="281.8" y="495.6" width="95.8" height="1.5" style="fill:rgb(1,1,1);"/>
            </g>
            <g>
                <path d="M378.4,582.3L281.1,582.3L281.1,456.9L378.4,456.9L378.4,582.3ZM282.6,580.8L376.9,580.8L376.9,458.4L282.6,458.4L282.6,580.8Z" style="fill:rgb(1,1,1);fill-rule:nonzero;"/>
            </g>
            <g>
                <rect x="329" y="496.3" width="1.5" height="85.2" style="fill:rgb(1,1,1);"/>
            </g>
        </g>
        <g>
            <g>
                <rect x="206.4" y="658.2" width="171.3" height="1.5" style="fill:rgb(1,1,1);"/>
            </g>
            <g>
                <path d="M378.4,790.9L205.6,790.9L205.6,619.4L378.4,619.4L378.4,790.9ZM207.1,789.4L376.9,789.4L376.9,620.9L207.1,620.9L207.1,789.4Z" style="fill:rgb(1,1,1);fill-rule:nonzero;"/>
            </g>
            <g>
                <rect x="253.5" y="620.2" width="1.5" height="170" style="fill:rgb(1,1,1);"/>
            </g>
        </g>
        <g>
            <g>
                <rect x="110.5" y="495.6" width="95.8" height="1.5" style="fill:rgb(1,1,1);"/>
            </g>
            <g>
                <path d="M207.1,582.3L109.8,582.3L109.8,456.9L207.1,456.9L207.1,582.3ZM111.3,580.8L205.6,580.8L205.6,458.4L111.3,458.4L111.3,580.8Z" style="fill:rgb(1,1,1);fill-rule:nonzero;"/>
            </g>
            <g>
                <rect x="157.7" y="496.3" width="1.5" height="85.2" style="fill:rgb(1,1,1);"/>
            </g>
        </g>
        <g>
            <g>
                <path d="M207.1,883.4L109.8,883.4L109.8,619.4L207.1,619.4L207.1,883.4ZM111.3,881.8L205.6,881.8L205.6,620.9L111.3,620.9L111.3,881.8Z" style="fill:rgb(1,1,1);fill-rule:nonzero;"/>
            </g>
        </g>
        <g>
            <path d="M158.4,705.1C145.2,705.1 134.4,694.3 134.4,681.1C134.4,667.9 145.2,657.1 158.4,657.1C171.6,657.1 182.4,667.9 182.4,681.1C182.4,694.3 171.7,705.1 158.4,705.1ZM158.4,658.6C146,658.6 135.9,668.7 135.9,681.1C135.9,693.5 146,703.6 158.4,703.6C170.8,703.6 180.9,693.5 180.9,681.1C180.9,668.7 170.9,658.6 158.4,658.6Z" style="fill:rgb(1,1,1);fill-rule:nonzero;"/>
        </g>
    </g>
    <g>
        <circle cx="32" cy="759" r="57" style="fill:white;"/>
        <path d="M32,816.7C0.2,816.7 -25.7,790.8 -25.7,759C-25.7,727.2 0.2,701.3 32,701.3C63.8,701.3 89.7,727.2 89.7,759C89.8,790.8 63.9,816.7 32,816.7ZM32,702.7C1,702.7 -24.2,727.9 -24.2,758.9C-24.2,789.9 1,815.1 32,815.1C63,815.1 88.2,789.9 88.2,758.9C88.3,727.9 63,702.7 32,702.7Z" style="fill:rgb(1,1,1);fill-rule:nonzero;"/>
    </g>
    <g>
        <g>
            <rect x="31.3" y="744.7" width="1.5" height="105" style="fill:rgb(1,1,1);"/>
        </g>
        <g>
            <path d="M32,768.1C19.2,768.1 8.8,757.7 8.8,744.9L10.3,744.9C10.3,756.9 20.1,766.6 32,766.6L32,768.1Z" style="fill:rgb(1,1,1);fill-rule:nonzero;"/>
        </g>
        <g>
            <path d="M32,793.4L32,791.9C44,791.9 53.7,782.1 53.7,770.2L55.2,770.2C55.3,783 44.8,793.4 32,793.4Z" style="fill:rgb(1,1,1);fill-rule:nonzero;"/>
        </g>
    </g>
    <g>
        <path d="M1728.9,882.6L65.7,882.6L65.7,837.2L-1.6,837.2L-1.6,882.6" style="fill:white;fill-rule:nonzero;"/>
        <path d="M1728.9,883.4L64.9,883.4L64.9,837.9L-0.9,837.9L-0.9,882.6L-2.4,882.6L-2.4,836.4L66.4,836.4L66.4,881.8L1728.9,881.8L1728.9,883.4Z" style="fill:rgb(1,1,1);fill-rule:nonzero;"/>
    </g>
    <g>
        <g>
            <path d="M487.7,794.6C487.1,814.2 472.6,831.1 453.3,834.5C428.2,839 405.5,820.7 403.8,796C403.5,791.8 403.9,787.8 404.7,783.9C408.2,768.5 403.7,752.6 394.2,740.1C389.2,733.6 386.1,725.5 385.7,716.7C385.1,703.4 390.7,691.3 399.9,683.2C400.8,682.4 401.7,681.7 402.7,681C411.7,674.4 417.8,664.6 420.4,653.8C423.5,640.9 421.2,627.2 413.8,616.2C408.8,608.8 406.1,599.8 406.7,590.1C408,569.2 425,552.2 445.9,550.8C470.3,549.2 490.6,568.6 490.6,592.7C490.6,595.9 490.2,599.1 489.5,602.1C486,617.4 490.4,633.2 499.9,645.7C504.8,652.2 508,660.1 508.4,668.8C509,682.1 503.4,694.2 494.2,702.3C493.3,703.1 492.4,703.8 491.4,704.5C482.4,711.1 476.3,720.9 473.7,731.7C470.6,744.6 472.9,758.3 480.3,769.3C485.3,776.7 488,785.7 487.4,795.4C488,785.7 485.3,776.7 480.3,769.3C472.9,758.3 470.7,744.6 473.7,731.7C476.3,720.9 482.4,711.1 491.4,704.5C492.4,703.8 493.3,703 494.2,702.3C503.4,694.2 509,682.1 508.4,668.8" style="fill:white;fill-rule:nonzero;"/>
            <path d="M445.6,835.9C436.1,835.9 427,832.8 419.4,826.8C409.8,819.3 403.9,808.1 403.1,796C402.8,791.9 403.1,787.7 404.1,783.7C407.4,769.2 403.6,753.5 393.7,740.5C388.5,733.6 385.5,725.4 385.1,716.7C384.5,703.7 389.8,691.2 399.6,682.6C400.5,681.8 401.4,681 402.4,680.3C411,673.9 417.2,664.4 419.8,653.5C422.9,640.6 420.5,627.1 413.3,616.5C408,608.7 405.5,599.5 406.1,589.9C407.4,568.5 424.6,551.3 446,549.9C458,549.1 469.3,553.2 478,561.4C486.6,569.5 491.5,580.8 491.5,592.6C491.5,595.8 491.1,599.1 490.4,602.2C487.1,616.6 490.9,632.3 500.7,645.2C505.9,652 508.9,660.2 509.4,668.8C510,681.8 504.7,694.3 494.9,702.9C494,703.7 493,704.5 492.1,705.2C483.5,711.6 477.3,721.1 474.7,732C473.8,735.7 473.4,739.4 473.4,743.2C473.4,752.4 476.1,761.4 481.2,769C486,776.1 488.5,784.3 488.5,792.8L488.5,794.6C487.9,814.6 473.2,831.7 453.5,835.2C450.8,835.7 448.1,835.9 445.6,835.9ZM448.7,551.5C447.8,551.5 446.9,551.5 446,551.6C425.3,552.9 408.8,569.5 407.5,590.2C406.9,599.4 409.3,608.3 414.4,615.8C421.8,626.8 424.2,640.7 421.1,654C418.4,665.2 412.1,675 403.1,681.6C402.2,682.3 401.2,683 400.4,683.8C390.9,692.1 385.8,704.1 386.4,716.7C386.8,725.1 389.7,733 394.7,739.7C404.8,753 408.7,769.2 405.3,784.1C404.4,788 404.1,792 404.4,796C405.2,807.7 410.9,818.5 420.1,825.8C429.5,833.1 441.1,836 452.9,833.9C471.6,830.6 485.7,814.5 486.7,795.6C486.8,794.7 486.8,793.8 486.8,793C486.8,784.7 484.4,776.8 479.8,770C474.5,762.2 471.8,752.9 471.8,743.4C471.8,739.6 472.2,735.7 473.2,731.9C475.9,720.7 482.2,710.9 491.2,704.3C492.1,703.6 493,702.9 493.9,702.1C502.9,694.2 507.9,683 507.9,671.2L507.9,669.2C507.4,660.9 504.5,653.1 499.5,646.5C489.4,633.3 485.5,617.1 488.9,602.3C489.6,599.3 489.9,596.2 489.9,593.1C489.9,581.6 485.3,570.9 476.9,563C469.2,555.4 459.3,551.5 448.7,551.5Z" style="fill:rgb(1,1,1);fill-rule:nonzero;"/>
        </g>
        <g>
            <path d="M447.6,882.6L446.1,882.6L446.1,783.3C446.1,763.5 446.1,752.6 442.4,740.3C440.3,733.5 439.2,725.3 439,716.7C438.8,703.8 440.8,691.5 444.7,682.9C445.1,682.1 445.4,681.3 445.8,680.6C449.2,674.2 451.7,664.6 452.7,653.7C453.9,640.7 453,627.1 450.1,616.4C448,608.6 447,599.5 447.3,590.1L448.8,590.1C448.6,599.4 449.5,608.3 451.6,616C454.5,626.9 455.5,640.7 454.2,653.8C453.2,664.9 450.6,674.7 447.1,681.3C446.7,682 446.4,682.7 446,683.5C442.2,691.9 440.2,704 440.4,716.7C440.6,725.2 441.7,733.2 443.7,739.9C447.5,752.4 447.5,763.4 447.5,783.4L447.6,882.6Z" style="fill:rgb(1,1,1);fill-rule:nonzero;"/>
        </g>
        <g transform="matrix(0.7254,-0.6883,0.6883,0.7254,-297.368,487.463)">
            <rect x="449.2" y="615.7" width="26.2" height="1.5" style="fill:rgb(1,1,1);"/>
        </g>
        <g transform="matrix(0.7254,-0.6883,0.6883,0.7254,-420.413,531.825)">
            <rect x="443.3" y="792.1" width="26.2" height="1.5" style="fill:rgb(1,1,1);"/>
        </g>
        <g transform="matrix(0.6884,-0.7253,0.7253,0.6884,-377.923,531.984)">
            <rect x="429.5" y="692.8" width="1.5" height="26.2" style="fill:rgb(1,1,1);"/>
        </g>
    </g>
    <g>
        <g>
            <g>
                <g transform="matrix(0.3817,-0.9243,0.9243,0.3817,-576.873,881.823)">
                    <rect x="337.4" y="871.3" width="66.6" height="1.5" style="fill:rgb(1,1,1);"/>
                </g>
                <g>
                    <g>
                        <path d="M237.8,939.7C193.8,939.7 158.1,903.9 158.1,860C158.1,816.1 193.9,780.3 237.8,780.3C281.7,780.3 317.5,816.1 317.5,860C317.5,903.9 281.8,939.7 237.8,939.7ZM237.8,789.2C198.8,789.2 167.1,820.9 167.1,859.9C167.1,898.9 198.8,930.6 237.8,930.6C276.8,930.6 308.5,898.9 308.5,859.9C308.6,821 276.9,789.2 237.8,789.2Z" style="fill:rgb(235,146,122);fill-rule:nonzero;"/>
                    </g>
                    <g>
                        <path d="M460.3,939.7C416.3,939.7 380.6,903.9 380.6,860C380.6,816.1 416.4,780.3 460.3,780.3C504.2,780.3 540,816.1 540,860C540,903.9 504.2,939.7 460.3,939.7ZM460.3,789.2C421.3,789.2 389.6,820.9 389.6,859.9C389.6,898.9 421.3,930.6 460.3,930.6C499.3,930.6 531,898.9 531,859.9C531,821 499.3,789.2 460.3,789.2Z" style="fill:rgb(235,146,122);fill-rule:nonzero;"/>
                    </g>
                    <g>
                        <path d="M364.9,873.1C346,873.1 330.2,861.4 322.7,841.6L285,743.4L286.4,742.9L324.1,841.1C332,862.1 349.6,873.6 370,871.3L396.8,775.9L461.6,860.5L370.7,872.7C368.8,873 366.8,873.1 364.9,873.1ZM397.5,779.2L371.7,871.1L458.9,859.4L397.5,779.2Z" style="fill:rgb(1,1,1);fill-rule:nonzero;"/>
                    </g>
                    <g transform="matrix(0.2696,-0.963,0.963,0.2696,-513.802,972.218)">
                        <rect x="334.9" y="824.1" width="98.1" height="1.5" style="fill:rgb(1,1,1);"/>
                    </g>
                    <g transform="matrix(0.2696,-0.963,0.963,0.2696,-446.269,945.552)">
                        <rect x="389.1" y="766.2" width="22.1" height="1.5" style="fill:rgb(1,1,1);"/>
                    </g>
                    <g>
                        <circle cx="370.7" cy="872" r="18.3" style="fill:white;"/>
                        <path d="M370.7,891.1C360.2,891.1 351.6,882.5 351.6,872C351.6,861.5 360.2,852.9 370.7,852.9C381.2,852.9 389.8,861.5 389.8,872C389.7,882.5 381.2,891.1 370.7,891.1ZM370.7,854.5C361,854.5 353.1,862.4 353.1,872.1C353.1,881.8 361,889.7 370.7,889.7C380.4,889.7 388.3,881.8 388.3,872.1C388.3,862.4 380.3,854.5 370.7,854.5Z" style="fill:rgb(1,1,1);fill-rule:nonzero;"/>
                    </g>
                    <g>
                        <circle cx="267.5" cy="759.3" r="5.4" style="fill:white;"/>
                    </g>
                </g>
                <g>
                    <path d="M460.3,871.5C454,871.5 448.8,866.3 448.8,860C448.8,853.7 454,848.5 460.3,848.5C466.6,848.5 471.8,853.7 471.8,860C471.8,866.3 466.6,871.5 460.3,871.5ZM460.3,850C454.8,850 450.3,854.5 450.3,860C450.3,865.5 454.8,870 460.3,870C465.8,870 470.3,865.5 470.3,860C470.3,854.5 465.8,850 460.3,850Z" style="fill:rgb(1,1,1);fill-rule:nonzero;"/>
                </g>
                <g>
                    <path d="M238.5,860.3L237.1,859.7L294.2,720.1C295,718.2 296.9,716.9 299,716.9L309.7,716.9L309.7,718.4L299,718.4C297.5,718.4 296.2,719.3 295.6,720.7L238.5,860.3Z" style="fill:rgb(1,1,1);fill-rule:nonzero;"/>
                </g>
            </g>
            <g>
                <rect x="382.8" y="755.5" width="32.3" height="1.5" style="fill:rgb(1,1,1);"/>
            </g>
        </g>
    </g>
    <g>
        <g>
            <g>
                <path d="M283.6,401.4C280.6,401.4 277.6,399.9 275.9,397.1C273.3,392.9 274.6,387.3 278.8,384.7L317,361.1C321.2,358.5 326.8,359.8 329.4,364C332,368.2 330.7,373.8 326.5,376.4L288.3,400C286.8,401 285.2,401.4 283.6,401.4Z" style="fill:rgb(228,105,72);fill-rule:nonzero;"/>
            </g>
        </g>
        <g>
            <g>
                <path d="M311.1,387.8C298.7,385.1 286.2,382.6 273.7,380.3C261.1,378.1 248.5,376.3 235.8,374.9L232.8,374.6C231.7,374.5 230.6,374.5 229.5,374.6C220.3,375.3 217.3,383.3 217.5,392.5C217.7,402.6 222.1,410.4 232.1,409.7C244.1,408.9 256.3,408.5 268.8,408.4C281.2,408.4 293.8,408.7 306.4,409.3C307.4,409.3 308.4,409.4 309.4,409.4C314.8,409.7 319.6,405.9 320.6,400.5C321.6,394.8 318,389.4 312.3,388.1C311.9,387.9 311.5,387.8 311.1,387.8Z" style="fill:rgb(51,51,51);fill-rule:nonzero;"/>
            </g>
        </g>
        <path d="M235.6,262C263.4,192.8 269.2,150.8 269.2,150.8L288.9,195.8C288.9,195.8 271.2,258.7 285.8,342.9C293.2,385.4 321,387.9 321,387.9L309.1,389.5C296.5,396.4 281.2,396.3 268.6,389.2L263.2,389.7L248.9,393.3L246.8,396.4C241.2,404.6 240.5,409.5 230.6,409.6L229.8,409.6C220.7,409.6 213.3,402.3 213.3,393.2L213.3,392.8C213.3,347.5 212.4,322.9 235.6,262" style="fill:rgb(40,0,58);fill-rule:nonzero;"/>
        <path d="M306.2,147.8C291.9,134.8 269.8,134.4 255.1,147C238,161.6 236.9,187.4 252.4,203.4C253.4,204.4 254.4,205.4 255.5,206.3C253.8,211.9 251.9,217.8 249.7,224.2L281.4,278.3C281.6,257.2 283.1,238.9 284.6,224.9C285.2,219.4 288.8,214.6 294,212.7C298.8,210.9 303.3,208.1 307.2,204.3C323,188.8 322.9,163 306.2,147.8Z" style="fill:rgb(228,105,72);fill-rule:nonzero;"/>
        <g>
            <circle cx="280.2" cy="176.4" r="38.7" style="fill:rgb(228,105,72);"/>
            <g opacity="0.5">
                <path d="M256.2,183.2L247.6,188.1C250.3,192 253.8,195.4 257.9,198C255.6,205.8 252.9,214.5 249.6,224L267.1,254L264.2,182.4L256.2,183.2Z" style="fill:rgb(165,44,53);fill-rule:nonzero;"/>
            </g>
            <g>
                <g>
                    <path d="M281,176.6L280.7,176.6L268.5,173.7C267.9,173.6 267.5,173 267.7,172.3C267.8,171.7 268.4,171.3 269.1,171.5L281.3,174.4C281.9,174.5 282.3,175.1 282.1,175.8C282,176.3 281.5,176.6 281,176.6Z" style="fill:white;fill-rule:nonzero;"/>
                </g>
                <g>
                    <path d="M307.5,182.8L307.2,182.8L300.1,181.1C299.5,181 299.1,180.4 299.3,179.7C299.4,179.1 300,178.7 300.7,178.9L307.8,180.6C308.4,180.7 308.8,181.3 308.6,182C308.4,182.4 308,182.8 307.5,182.8Z" style="fill:white;fill-rule:nonzero;"/>
                </g>
                <g>
                    <path d="M317.2,195C316.4,195 315.5,194.9 314.7,194.7C311.8,194 309.4,192.3 307.8,189.8C306.2,187.3 305.8,184.3 306.4,181.4C307,178.5 308.8,176.1 311.3,174.5C313.8,172.9 316.8,172.5 319.7,173.1C325.6,174.5 329.3,180.5 328,186.4C327.3,189.3 325.6,191.7 323.1,193.3C321.2,194.4 319.2,195 317.2,195ZM317.1,175.1C315.5,175.1 313.9,175.6 312.5,176.4C310.5,177.6 309.1,179.6 308.6,181.9C308.1,184.2 308.5,186.6 309.7,188.6C310.9,190.6 312.9,192 315.2,192.5C317.5,193 319.9,192.6 321.9,191.4C323.9,190.2 325.3,188.2 325.8,185.9C326.9,181.2 324,176.4 319.2,175.3C318.5,175.2 317.8,175.1 317.1,175.1Z" style="fill:white;fill-rule:nonzero;"/>
                </g>
                <g>
                    <path d="M290.7,188.8C289.9,188.8 289,188.7 288.2,188.5C285.3,187.8 282.9,186.1 281.3,183.6C279.7,181.1 279.3,178.1 279.9,175.2C281.3,169.3 287.3,165.6 293.2,166.9C296.1,167.6 298.5,169.3 300.1,171.8C301.7,174.3 302.1,177.3 301.5,180.2C300.8,183.1 299.1,185.5 296.6,187.1C294.8,188.2 292.7,188.8 290.7,188.8ZM290.7,168.9C286.7,168.9 283.1,171.6 282.1,175.7C281.6,178 282,180.4 283.2,182.4C284.4,184.4 286.4,185.8 288.7,186.3C291,186.8 293.4,186.4 295.4,185.2C297.4,184 298.8,182 299.3,179.7C299.8,177.4 299.4,175 298.2,173C297,171 295,169.6 292.7,169.1C292,169 291.4,168.9 290.7,168.9Z" style="fill:white;fill-rule:nonzero;"/>
                </g>
                <g transform="matrix(1.08569,0,0,0.779672,-26.295,41.8869)">
                    <path d="M301.4,195C301.1,195 300.9,195 300.6,194.9C299.5,194.6 298.351,193.759 297.951,192.659L295.797,188.613L298.997,186.666L301.467,190.712L304.504,187.312L307.3,190.5L303.8,194C303.1,194.7 302.3,195 301.4,195Z" style="fill:rgb(245,165,155);fill-rule:nonzero;"/>
                </g>
                <g transform="matrix(1,0,0,1,0,1)">
                    <path d="M267.6,188.9L260.3,187.2C256.3,186.3 253.8,182.2 254.7,178.2C255.6,174.2 259.7,171.7 263.7,172.6L271,174.3L267.6,188.9Z" style="fill:rgb(228,105,72);fill-rule:nonzero;"/>
                </g>
            </g>
        </g>
        <path d="M291,481.1L247.5,411.7C242.9,404.3 245.1,394.6 252.5,389.9C259.9,385.3 269.6,387.5 274.3,394.9C275,396 275.5,397.1 275.9,398.3L301.9,476C303,479.2 301.3,482.6 298.1,483.6C295.3,484.5 292.4,483.4 291,481.1Z" style="fill:rgb(51,51,51);fill-rule:nonzero;"/>
        <g transform="matrix(0.691522,-0.722356,0.722356,0.691522,-202.675,354.273)">
            <path d="M275.5,475.6L302.3,398.2C305.1,390 314.1,385.6 322.4,388.4C330.7,391.2 335,400.2 332.2,408.5C331.8,409.7 331.2,410.8 330.6,411.9L286.4,480.9C284.6,483.7 280.9,484.5 278.1,482.7C275.5,481.1 274.6,478.2 275.5,475.6Z" style="fill:rgb(51,51,51);fill-rule:nonzero;"/>
        </g>
        <g transform="matrix(0.729175,-0.684327,0.684327,0.729175,-198.047,326.044)">
            <path d="M284.1,448.7L305.914,453.652L290.5,480.6L305.337,492.482C304.637,495.082 298.353,504.681 298.153,501.981L273.9,482.3C273.7,479.4 274.2,476.6 275.1,473.9L284.1,448.7Z" style="fill:rgb(40,0,58);fill-rule:nonzero;"/>
        </g>
        <g transform="matrix(0.729175,-0.684327,0.684327,0.729175,-237.17,330.752)">
            <path d="M284.1,448.7L305.914,453.652L290.5,480.6L305.337,492.482C304.637,495.082 298.353,504.681 298.153,501.981L273.9,482.3C273.7,479.4 274.2,476.6 275.1,473.9L284.1,448.7Z" style="fill:rgb(40,0,58);fill-rule:nonzero;"/>
        </g>
        <g>
            <path d="M311.9,187.6L309.8,186.9C309.9,186.6 310,186.3 310.1,186C310.5,185 310.7,184.3 310.7,183.3L312.9,183.3C312.9,184.7 312.5,185.7 312.1,186.8C312.1,187 312,187.3 311.9,187.6Z" style="fill:rgb(1,1,1);fill-rule:nonzero;"/>
        </g>
        <g>
            <path d="M295,184.4L292.9,183.7C293,183.4 293.1,183.1 293.2,182.8C293.6,181.8 293.8,181.1 293.8,180.1L296,180.1C296,181.5 295.6,182.5 295.2,183.6C295.2,183.8 295.1,184.1 295,184.4Z" style="fill:rgb(1,1,1);fill-rule:nonzero;"/>
        </g>
        <path d="M271.7,354.2C273.6,364 282.9,370.2 282.9,370.2C282.9,370.2 289.3,361 287.4,351.2C285.5,341.4 276.1,335 276.1,335C276.1,335 269.8,344.4 271.7,354.2Z" style="fill:rgb(51,51,51);fill-rule:nonzero;"/>
        <path d="M318.5,333.9C318.2,333.5 311.1,325.2 300,325.9C298.7,325.9 297.5,326.1 296.2,326.6L254.7,343.8C250.1,345.7 247.9,351 249.8,355.6C251.2,359.1 254.6,361.2 258.1,361.2C259.2,361.2 260.4,361 261.5,360.5L291.7,348L300.1,349.4C303.5,349.9 306.6,347.7 307.2,344.3L308.9,334.1C311.9,335.7 313.7,337.8 313.8,337.9C314.4,338.6 315.2,339 316.1,339C316.8,339 317.5,338.8 318,338.3C319.4,337.1 319.5,335.2 318.5,333.9Z" style="fill:rgb(228,105,72);fill-rule:nonzero;"/>
        <g>
            <g>
                <path d="M320.4,370.2L307.6,366.4C305.5,365.8 304.7,363 306,360.2L323.8,319.6C325,316.8 327.8,315.1 329.9,315.7L342.7,319.5C344.8,320.1 345.6,322.9 344.3,325.7L326.5,366.3C325.2,369.1 322.5,370.8 320.4,370.2Z" style="fill:rgb(235,146,122);fill-rule:nonzero;"/>
            </g>
            <g transform="matrix(0.5264,-0.8502,0.8502,0.5264,-116.943,442.206)">
                <ellipse cx="338.5" cy="326.1" rx="2.8" ry="2" style="fill:rgb(51,51,51);"/>
            </g>
        </g>
        <path d="M337.1,355.4L326.4,344C325,342.5 322.6,342.4 321.1,343.8C319.6,345.2 319.5,347.6 320.9,349.1L329.7,358.4L329.6,358.6L320.4,350.5C318.8,349.1 316.5,349.3 315.1,350.8C313.7,352.4 313.9,354.7 315.4,356.1L316.2,356.8C314.6,355.6 312.4,355.8 311.1,357.3C309.7,358.9 309.9,361.2 311.4,362.6L323.9,373.6L324,373.7C324.1,373.8 324.3,373.9 324.5,374C324.5,374 324.6,374 324.6,374.1L324.7,374.1C324.9,374.2 325,374.3 325.2,374.3C325.3,374.3 325.3,374.3 325.4,374.4C325.5,374.4 325.7,374.5 325.8,374.5L326,374.5C326.2,374.5 326.4,374.6 326.6,374.6C326.8,374.6 327.1,374.6 327.3,374.5L327.4,374.5C327.6,374.5 327.8,374.4 328,374.3C328,374.3 328.1,374.3 328.1,374.2C328.3,374.1 328.5,374 328.7,373.9C328.9,373.8 329.1,373.6 329.2,373.4L329.3,373.3C329.4,373.1 329.6,373 329.7,372.8L337.5,359.8C338.4,358.4 338.2,356.6 337.1,355.4Z" style="fill:rgb(228,105,72);fill-rule:nonzero;"/>
        <path d="M282.9,370.2C282.9,370.2 273.6,364 271.7,354.2C269.8,344.4 276.1,334.9 276.1,334.9L259,332.5L243.8,344.7L247,363.7L270.2,373.4L282.9,370.2Z" style="fill:rgb(40,0,58);fill-rule:nonzero;"/>
        <g>
            <path d="M235.3,382.7C231.3,382.7 227.3,381.3 224.1,378.7C219.6,375 217.2,369.2 217.8,363.4L224.2,301.7L225.7,301.9L219.3,363.6C218.8,368.9 220.9,374.2 225,377.6C229.1,381 234.7,382.2 239.8,380.6L282.5,368.7L282.9,370.1L240.2,382C238.6,382.5 237,382.7 235.3,382.7Z" style="fill:rgb(51,51,51);fill-rule:nonzero;"/>
        </g>
    </g>
    <g>
        <path d="M1373.2,142.5C1360.1,142.4 1353.2,137.4 1353.3,128.1C1353.4,120.6 1358.5,116.7 1368.5,116.9C1374.7,117 1380.8,118.4 1386.8,119.8C1392.5,121.1 1397.9,122.4 1403,122.5L1403.2,122.5C1415,122.5 1420.5,112.5 1426.4,102C1432.8,90.5 1439.4,78.7 1454.7,79.9C1456.9,80.1 1459.1,80.7 1461.2,81.3C1463.6,82 1466.1,82.7 1468.5,82.7L1468.8,82.7C1483.7,82.7 1492.5,73 1501.8,62.6C1512.9,50.3 1525.4,36.4 1550.6,36.4L1551.2,36.4C1581.5,36.7 1597.6,55.8 1611.8,72.7C1624,87.2 1635.6,100.9 1654.3,101.1L1654.5,101.1C1661.5,101.1 1666.3,97.7 1671.9,93.8C1678.5,89.2 1686.1,83.9 1698.7,83.9L1699.1,83.9C1713.7,84 1721.8,93.6 1729.7,102.9C1736.4,110.8 1742.8,118.3 1752.5,118.4C1757.3,118.5 1760.9,116.2 1765,113.6C1770.1,110.4 1775.9,106.8 1785.5,106.8L1785.8,106.8C1807.4,107 1816.6,121.5 1816.6,128.9C1816.6,131.5 1815.3,135.3 1809.5,138.1C1803.4,141 1793.3,142.5 1779.6,142.4L1395.2,142.4C1377.9,142.2 1373.2,142.5 1373.2,142.5ZM1368.2,118.3C1359.1,118.3 1354.9,121.4 1354.8,128.1C1354.7,136.6 1360.9,140.9 1373.1,141C1373.2,141 1377.8,140.7 1395.3,140.8L1779.7,140.8C1793.2,140.9 1803,139.5 1808.9,136.7C1813.1,134.7 1815.2,132.1 1815.2,128.8C1815.3,121.9 1806.5,108.4 1785.9,108.2C1776.6,108.1 1770.9,111.7 1765.9,114.8C1761.7,117.4 1757.8,119.9 1752.5,119.8C1742,119.7 1735.5,112 1728.5,103.8C1720.9,94.8 1712.9,85.5 1699,85.4L1698.6,85.4C1686.5,85.4 1679.5,90.3 1672.7,95C1667.1,98.9 1661.8,102.6 1654.4,102.6L1654.2,102.6C1634.8,102.4 1623,88.5 1610.6,73.7C1595.9,56.3 1580.7,38.2 1551.1,38C1526.2,37.8 1514.3,50.9 1502.8,63.7C1493.3,74.3 1484.2,84.3 1468.6,84.3L1468.3,84.3C1465.7,84.3 1463.1,83.5 1460.6,82.8C1458.5,82.2 1456.4,81.6 1454.3,81.4C1440,80.2 1433.9,91.1 1427.4,102.7C1421.6,113.2 1415.5,124 1402.9,124L1402.7,124C1397.4,124 1391.9,122.7 1386.1,121.3C1380.2,119.9 1374.1,118.5 1368.1,118.4C1368.4,118.3 1368.3,118.3 1368.2,118.3Z" style="fill:rgb(1,1,1);fill-rule:nonzero;"/>
    </g>
    <g>
        <g transform="matrix(1,0,0,1,-45.5909,-13.0462)">
            <path d="M1393.1,82.5L1391.6,82.5C1391.6,71.9 1383,63.3 1372.4,63.3L1372.4,61.8C1381.9,61.8 1389.9,68.2 1392.3,76.9C1394.7,68.2 1402.7,61.8 1412.2,61.8L1412.2,63.3C1401.7,63.3 1393.1,71.9 1393.1,82.5Z" style="fill:rgb(1,1,1);fill-rule:nonzero;"/>
        </g>
        <g transform="matrix(1,0,0,1,-134.079,40.8044)">
            <path d="M1393.1,82.5L1391.6,82.5C1391.6,71.9 1383,63.3 1372.4,63.3L1372.4,61.8C1381.9,61.8 1389.9,68.2 1392.3,76.9C1394.7,68.2 1402.7,61.8 1412.2,61.8L1412.2,63.3C1401.7,63.3 1393.1,71.9 1393.1,82.5Z" style="fill:rgb(1,1,1);fill-rule:nonzero;"/>
        </g>
        <g transform="matrix(1,0,0,1,61.6201,-34.792)">
            <path d="M1393.1,82.5L1391.6,82.5C1391.6,71.9 1383,63.3 1372.4,63.3L1372.4,61.8C1381.9,61.8 1389.9,68.2 1392.3,76.9C1394.7,68.2 1402.7,61.8 1412.2,61.8L1412.2,63.3C1401.7,63.3 1393.1,71.9 1393.1,82.5Z" style="fill:rgb(1,1,1);fill-rule:nonzero;"/>
        </g>
        <g transform="matrix(1,0,0,1,-228.737,-38.4484)">
            <path d="M1393.1,82.5L1391.6,82.5C1391.6,71.9 1383,63.3 1372.4,63.3L1372.4,61.8C1381.9,61.8 1389.9,68.2 1392.3,76.9C1394.7,68.2 1402.7,61.8 1412.2,61.8L1412.2,63.3C1401.7,63.3 1393.1,71.9 1393.1,82.5Z" style="fill:rgb(1,1,1);fill-rule:nonzero;"/>
        </g>
    </g>
</svg>
