<svg clip-rule="evenodd" fill-rule="evenodd" stroke-linejoin="round" stroke-miterlimit="2" viewBox="0 0 1730 940" xmlns="http://www.w3.org/2000/svg"><path d="m65.6 409.4h356.9v473.2h-356.9z" fill="#fff"/><path d="m423.3 883.4h-358.4v-474.8h358.4zm-356.9-1.6h355.4v-471.7h-355.4z" fill="#010101" fill-rule="nonzero"/><path d="m281.8 495.6h95.8v1.5h-95.8z" fill="#010101"/><path d="m378.4 582.3h-97.3v-125.4h97.3zm-95.8-1.5h94.3v-122.4h-94.3z" fill="#010101" fill-rule="nonzero"/><path d="m329 496.3h1.5v85.2h-1.5z" fill="#010101"/><path d="m206.4 658.2h171.3v1.5h-171.3z" fill="#010101"/><path d="m378.4 790.9h-172.8v-171.5h172.8zm-171.3-1.5h169.8v-168.5h-169.8z" fill="#010101" fill-rule="nonzero"/><path d="m253.5 620.2h1.5v170h-1.5z" fill="#010101"/><path d="m110.5 495.6h95.8v1.5h-95.8z" fill="#010101"/><path d="m207.1 582.3h-97.3v-125.4h97.3zm-95.8-1.5h94.3v-122.4h-94.3z" fill="#010101" fill-rule="nonzero"/><path d="m157.7 496.3h1.5v85.2h-1.5z" fill="#010101"/><path d="m207.1 883.4h-97.3v-264h97.3zm-95.8-1.6h94.3v-260.9h-94.3z" fill="#010101" fill-rule="nonzero"/><path d="m158.4 705.1c-13.2 0-24-10.8-24-24s10.8-24 24-24 24 10.8 24 24-10.7 24-24 24zm0-46.5c-12.4 0-22.5 10.1-22.5 22.5s10.1 22.5 22.5 22.5 22.5-10.1 22.5-22.5-10-22.5-22.5-22.5z" fill="#010101" fill-rule="nonzero"/><circle cx="32" cy="759" fill="#fff" r="57"/><path d="m32 816.7c-31.8 0-57.7-25.9-57.7-57.7s25.9-57.7 57.7-57.7 57.7 25.9 57.7 57.7c.1 31.8-25.8 57.7-57.7 57.7zm0-114c-31 0-56.2 25.2-56.2 56.2s25.2 56.2 56.2 56.2 56.2-25.2 56.2-56.2c.1-31-25.2-56.2-56.2-56.2z" fill="#010101" fill-rule="nonzero"/><path d="m31.3 744.7h1.5v105h-1.5z" fill="#010101"/><path d="m32 768.1c-12.8 0-23.2-10.4-23.2-23.2h1.5c0 12 9.8 21.7 21.7 21.7z" fill="#010101" fill-rule="nonzero"/><path d="m32 793.4v-1.5c12 0 21.7-9.8 21.7-21.7h1.5c.1 12.8-10.4 23.2-23.2 23.2z" fill="#010101" fill-rule="nonzero"/><path d="m1728.9 882.6h-1663.2v-45.4h-67.3v45.4" fill="#fff" fill-rule="nonzero"/><path d="m1728.9 883.4h-1664v-45.5h-65.8v44.7h-1.5v-46.2h68.8v45.4h1662.5z" fill="#010101" fill-rule="nonzero"/><path d="m487.7 794.6c-.6 19.6-15.1 36.5-34.4 39.9-25.1 4.5-47.8-13.8-49.5-38.5-.3-4.2.1-8.2.9-12.1 3.5-15.4-1-31.3-10.5-43.8-5-6.5-8.1-14.6-8.5-23.4-.6-13.3 5-25.4 14.2-33.5.9-.8 1.8-1.5 2.8-2.2 9-6.6 15.1-16.4 17.7-27.2 3.1-12.9.8-26.6-6.6-37.6-5-7.4-7.7-16.4-7.1-26.1 1.3-20.9 18.3-37.9 39.2-39.3 24.4-1.6 44.7 17.8 44.7 41.9 0 3.2-.4 6.4-1.1 9.4-3.5 15.3.9 31.1 10.4 43.6 4.9 6.5 8.1 14.4 8.5 23.1.6 13.3-5 25.4-14.2 33.5-.9.8-1.8 1.5-2.8 2.2-9 6.6-15.1 16.4-17.7 27.2-3.1 12.9-.8 26.6 6.6 37.6 5 7.4 7.7 16.4 7.1 26.1.6-9.7-2.1-18.7-7.1-26.1-7.4-11-9.6-24.7-6.6-37.6 2.6-10.8 8.7-20.6 17.7-27.2 1-.7 1.9-1.5 2.8-2.2 9.2-8.1 14.8-20.2 14.2-33.5" fill="#fff" fill-rule="nonzero"/><path d="m445.6 835.9c-9.5 0-18.6-3.1-26.2-9.1-9.6-7.5-15.5-18.7-16.3-30.8-.3-4.1 0-8.3 1-12.3 3.3-14.5-.5-30.2-10.4-43.2-5.2-6.9-8.2-15.1-8.6-23.8-.6-13 4.7-25.5 14.5-34.1.9-.8 1.8-1.6 2.8-2.3 8.6-6.4 14.8-15.9 17.4-26.8 3.1-12.9.7-26.4-6.5-37-5.3-7.8-7.8-17-7.2-26.6 1.3-21.4 18.5-38.6 39.9-40 12-.8 23.3 3.3 32 11.5 8.6 8.1 13.5 19.4 13.5 31.2 0 3.2-.4 6.5-1.1 9.6-3.3 14.4.5 30.1 10.3 43 5.2 6.8 8.2 15 8.7 23.6.6 13-4.7 25.5-14.5 34.1-.9.8-1.9 1.6-2.8 2.3-8.6 6.4-14.8 15.9-17.4 26.8-.9 3.7-1.3 7.4-1.3 11.2 0 9.2 2.7 18.2 7.8 25.8 4.8 7.1 7.3 15.3 7.3 23.8v1.8c-.6 20-15.3 37.1-35 40.6-2.7.5-5.4.7-7.9.7zm3.1-284.4c-.9 0-1.8 0-2.7.1-20.7 1.3-37.2 17.9-38.5 38.6-.6 9.2 1.8 18.1 6.9 25.6 7.4 11 9.8 24.9 6.7 38.2-2.7 11.2-9 21-18 27.6-.9.7-1.9 1.4-2.7 2.2-9.5 8.3-14.6 20.3-14 32.9.4 8.4 3.3 16.3 8.3 23 10.1 13.3 14 29.5 10.6 44.4-.9 3.9-1.2 7.9-.9 11.9.8 11.7 6.5 22.5 15.7 29.8 9.4 7.3 21 10.2 32.8 8.1 18.7-3.3 32.8-19.4 33.8-38.3.1-.9.1-1.8.1-2.6 0-8.3-2.4-16.2-7-23-5.3-7.8-8-17.1-8-26.6 0-3.8.4-7.7 1.4-11.5 2.7-11.2 9-21 18-27.6.9-.7 1.8-1.4 2.7-2.2 9-7.9 14-19.1 14-30.9v-2c-.5-8.3-3.4-16.1-8.4-22.7-10.1-13.2-14-29.4-10.6-44.2.7-3 1-6.1 1-9.2 0-11.5-4.6-22.2-13-30.1-7.7-7.6-17.6-11.5-28.2-11.5z" fill="#010101" fill-rule="nonzero"/><path d="m447.6 882.6h-1.5v-99.3c0-19.8 0-30.7-3.7-43-2.1-6.8-3.2-15-3.4-23.6-.2-12.9 1.8-25.2 5.7-33.8.4-.8.7-1.6 1.1-2.3 3.4-6.4 5.9-16 6.9-26.9 1.2-13 .3-26.6-2.6-37.3-2.1-7.8-3.1-16.9-2.8-26.3h1.5c-.2 9.3.7 18.2 2.8 25.9 2.9 10.9 3.9 24.7 2.6 37.8-1 11.1-3.6 20.9-7.1 27.5-.4.7-.7 1.4-1.1 2.2-3.8 8.4-5.8 20.5-5.6 33.2.2 8.5 1.3 16.5 3.3 23.2 3.8 12.5 3.8 23.5 3.8 43.5z" fill="#010101" fill-rule="nonzero"/><path d="m449.2 615.7h26.2v1.5h-26.2z" fill="#010101" transform="matrix(.7254 -.6883 .6883 .7254 -297.368 487.463)"/><path d="m443.3 792.1h26.2v1.5h-26.2z" fill="#010101" transform="matrix(.7254 -.6883 .6883 .7254 -420.413 531.825)"/><path d="m429.5 692.8h1.5v26.2h-1.5z" fill="#010101" transform="matrix(.6884 -.7253 .7253 .6884 -377.923 531.984)"/><path d="m337.4 871.3h66.6v1.5h-66.6z" fill="#010101" transform="matrix(.3817 -.9243 .9243 .3817 -576.873 881.823)"/><path d="m237.8 939.7c-44 0-79.7-35.8-79.7-79.7s35.8-79.7 79.7-79.7 79.7 35.8 79.7 79.7-35.7 79.7-79.7 79.7zm0-150.5c-39 0-70.7 31.7-70.7 70.7s31.7 70.7 70.7 70.7 70.7-31.7 70.7-70.7c.1-38.9-31.6-70.7-70.7-70.7z" fill="#eb927a" fill-rule="nonzero"/><path d="m460.3 939.7c-44 0-79.7-35.8-79.7-79.7s35.8-79.7 79.7-79.7 79.7 35.8 79.7 79.7-35.8 79.7-79.7 79.7zm0-150.5c-39 0-70.7 31.7-70.7 70.7s31.7 70.7 70.7 70.7 70.7-31.7 70.7-70.7c0-38.9-31.7-70.7-70.7-70.7z" fill="#eb927a" fill-rule="nonzero"/><path d="m364.9 873.1c-18.9 0-34.7-11.7-42.2-31.5l-37.7-98.2 1.4-.5 37.7 98.2c7.9 21 25.5 32.5 45.9 30.2l26.8-95.4 64.8 84.6-90.9 12.2c-1.9.3-3.9.4-5.8.4zm32.6-93.9-25.8 91.9 87.2-11.7z" fill="#010101" fill-rule="nonzero"/><path d="m334.9 824.1h98.1v1.5h-98.1z" fill="#010101" transform="matrix(.2696 -.963 .963 .2696 -513.802 972.218)"/><path d="m389.1 766.2h22.1v1.5h-22.1z" fill="#010101" transform="matrix(.2696 -.963 .963 .2696 -446.269 945.552)"/><circle cx="370.7" cy="872" fill="#fff" r="18.3"/><path d="m370.7 891.1c-10.5 0-19.1-8.6-19.1-19.1s8.6-19.1 19.1-19.1 19.1 8.6 19.1 19.1c-.1 10.5-8.6 19.1-19.1 19.1zm0-36.6c-9.7 0-17.6 7.9-17.6 17.6s7.9 17.6 17.6 17.6 17.6-7.9 17.6-17.6-8-17.6-17.6-17.6z" fill="#010101" fill-rule="nonzero"/><circle cx="267.5" cy="759.3" fill="#fff" r="5.4"/><path d="m460.3 871.5c-6.3 0-11.5-5.2-11.5-11.5s5.2-11.5 11.5-11.5 11.5 5.2 11.5 11.5-5.2 11.5-11.5 11.5zm0-21.5c-5.5 0-10 4.5-10 10s4.5 10 10 10 10-4.5 10-10-4.5-10-10-10z" fill="#010101" fill-rule="nonzero"/><path d="m238.5 860.3-1.4-.6 57.1-139.6c.8-1.9 2.7-3.2 4.8-3.2h10.7v1.5h-10.7c-1.5 0-2.8.9-3.4 2.3z" fill="#010101" fill-rule="nonzero"/><path d="m382.8 755.5h32.3v1.5h-32.3z" fill="#010101"/><path d="m283.6 401.4c-3 0-6-1.5-7.7-4.3-2.6-4.2-1.3-9.8 2.9-12.4l38.2-23.6c4.2-2.6 9.8-1.3 12.4 2.9s1.3 9.8-2.9 12.4l-38.2 23.6c-1.5 1-3.1 1.4-4.7 1.4z" fill="#e46948" fill-rule="nonzero"/><path d="m311.1 387.8c-12.4-2.7-24.9-5.2-37.4-7.5-12.6-2.2-25.2-4-37.9-5.4l-3-.3c-1.1-.1-2.2-.1-3.3 0-9.2.7-12.2 8.7-12 17.9.2 10.1 4.6 17.9 14.6 17.2 12-.8 24.2-1.2 36.7-1.3 12.4 0 25 .3 37.6.9 1 0 2 .1 3 .1 5.4.3 10.2-3.5 11.2-8.9 1-5.7-2.6-11.1-8.3-12.4-.4-.2-.8-.3-1.2-.3z" fill="#333" fill-rule="nonzero"/><path d="m235.6 262c27.8-69.2 33.6-111.2 33.6-111.2l19.7 45s-17.7 62.9-3.1 147.1c7.4 42.5 35.2 45 35.2 45l-11.9 1.6c-12.6 6.9-27.9 6.8-40.5-.3l-5.4.5-14.3 3.6-2.1 3.1c-5.6 8.2-6.3 13.1-16.2 13.2h-.8c-9.1 0-16.5-7.3-16.5-16.4v-.4c0-45.3-.9-69.9 22.3-130.8" fill="#28003a" fill-rule="nonzero"/><path d="m306.2 147.8c-14.3-13-36.4-13.4-51.1-.8-17.1 14.6-18.2 40.4-2.7 56.4 1 1 2 2 3.1 2.9-1.7 5.6-3.6 11.5-5.8 17.9l31.7 54.1c.2-21.1 1.7-39.4 3.2-53.4.6-5.5 4.2-10.3 9.4-12.2 4.8-1.8 9.3-4.6 13.2-8.4 15.8-15.5 15.7-41.3-1-56.5z" fill="#e46948" fill-rule="nonzero"/><circle cx="280.2" cy="176.4" fill="#e46948" r="38.7"/><g fill-rule="nonzero"><path d="m256.2 183.2-8.6 4.9c2.7 3.9 6.2 7.3 10.3 9.9-2.3 7.8-5 16.5-8.3 26l17.5 30-2.9-71.6z" fill="#a52c35" opacity=".5"/><path d="m281 176.6h-.3l-12.2-2.9c-.6-.1-1-.7-.8-1.4.1-.6.7-1 1.4-.8l12.2 2.9c.6.1 1 .7.8 1.4-.1.5-.6.8-1.1.8z" fill="#fff"/><path d="m307.5 182.8h-.3l-7.1-1.7c-.6-.1-1-.7-.8-1.4.1-.6.7-1 1.4-.8l7.1 1.7c.6.1 1 .7.8 1.4-.2.4-.6.8-1.1.8z" fill="#fff"/><path d="m317.2 195c-.8 0-1.7-.1-2.5-.3-2.9-.7-5.3-2.4-6.9-4.9s-2-5.5-1.4-8.4 2.4-5.3 4.9-6.9 5.5-2 8.4-1.4c5.9 1.4 9.6 7.4 8.3 13.3-.7 2.9-2.4 5.3-4.9 6.9-1.9 1.1-3.9 1.7-5.9 1.7zm-.1-19.9c-1.6 0-3.2.5-4.6 1.3-2 1.2-3.4 3.2-3.9 5.5s-.1 4.7 1.1 6.7 3.2 3.4 5.5 3.9 4.7.1 6.7-1.1 3.4-3.2 3.9-5.5c1.1-4.7-1.8-9.5-6.6-10.6-.7-.1-1.4-.2-2.1-.2z" fill="#fff"/><path d="m290.7 188.8c-.8 0-1.7-.1-2.5-.3-2.9-.7-5.3-2.4-6.9-4.9s-2-5.5-1.4-8.4c1.4-5.9 7.4-9.6 13.3-8.3 2.9.7 5.3 2.4 6.9 4.9s2 5.5 1.4 8.4c-.7 2.9-2.4 5.3-4.9 6.9-1.8 1.1-3.9 1.7-5.9 1.7zm0-19.9c-4 0-7.6 2.7-8.6 6.8-.5 2.3-.1 4.7 1.1 6.7s3.2 3.4 5.5 3.9 4.7.1 6.7-1.1 3.4-3.2 3.9-5.5.1-4.7-1.1-6.7-3.2-3.4-5.5-3.9c-.7-.1-1.3-.2-2-.2z" fill="#fff"/><path d="m301.4 195c-.3 0-.5 0-.8-.1-1.1-.3-2.249-1.141-2.649-2.241l-2.154-4.046 3.2-1.947 2.47 4.046 3.037-3.4 2.796 3.188-3.5 3.5c-.7.7-1.5 1-2.4 1z" fill="#f5a59b" transform="matrix(1.08569 0 0 .779672 -26.295 41.8869)"/><path d="m267.6 188.9-7.3-1.7c-4-.9-6.5-5-5.6-9s5-6.5 9-5.6l7.3 1.7z" fill="#e46948" transform="translate(0 1)"/><path d="m291 481.1-43.5-69.4c-4.6-7.4-2.4-17.1 5-21.8 7.4-4.6 17.1-2.4 21.8 5 .7 1.1 1.2 2.2 1.6 3.4l26 77.7c1.1 3.2-.6 6.6-3.8 7.6-2.8.9-5.7-.2-7.1-2.5z" fill="#333"/><path d="m275.5 475.6 26.8-77.4c2.8-8.2 11.8-12.6 20.1-9.8s12.6 11.8 9.8 20.1c-.4 1.2-1 2.3-1.6 3.4l-44.2 69c-1.8 2.8-5.5 3.6-8.3 1.8-2.6-1.6-3.5-4.5-2.6-7.1z" fill="#333" transform="matrix(.691522 -.722356 .722356 .691522 -202.675 354.273)"/><path d="m284.1 448.7 21.814 4.952-15.414 26.948 14.837 11.882c-.7 2.6-6.984 12.199-7.184 9.499l-24.253-19.681c-.2-2.9.3-5.7 1.2-8.4z" fill="#28003a" transform="matrix(.729175 -.684327 .684327 .729175 -198.047 326.044)"/><path d="m284.1 448.7 21.814 4.952-15.414 26.948 14.837 11.882c-.7 2.6-6.984 12.199-7.184 9.499l-24.253-19.681c-.2-2.9.3-5.7 1.2-8.4z" fill="#28003a" transform="matrix(.729175 -.684327 .684327 .729175 -237.17 330.752)"/><path d="m311.9 187.6-2.1-.7c.1-.3.2-.6.3-.9.4-1 .6-1.7.6-2.7h2.2c0 1.4-.4 2.4-.8 3.5 0 .2-.1.5-.2.8z" fill="#010101"/><path d="m295 184.4-2.1-.7c.1-.3.2-.6.3-.9.4-1 .6-1.7.6-2.7h2.2c0 1.4-.4 2.4-.8 3.5 0 .2-.1.5-.2.8z" fill="#010101"/><path d="m271.7 354.2c1.9 9.8 11.2 16 11.2 16s6.4-9.2 4.5-19-11.3-16.2-11.3-16.2-6.3 9.4-4.4 19.2z" fill="#333"/><path d="m318.5 333.9c-.3-.4-7.4-8.7-18.5-8-1.3 0-2.5.2-3.8.7l-41.5 17.2c-4.6 1.9-6.8 7.2-4.9 11.8 1.4 3.5 4.8 5.6 8.3 5.6 1.1 0 2.3-.2 3.4-.7l30.2-12.5 8.4 1.4c3.4.5 6.5-1.7 7.1-5.1l1.7-10.2c3 1.6 4.8 3.7 4.9 3.8.6.7 1.4 1.1 2.3 1.1.7 0 1.4-.2 1.9-.7 1.4-1.2 1.5-3.1.5-4.4z" fill="#e46948"/><path d="m320.4 370.2-12.8-3.8c-2.1-.6-2.9-3.4-1.6-6.2l17.8-40.6c1.2-2.8 4-4.5 6.1-3.9l12.8 3.8c2.1.6 2.9 3.4 1.6 6.2l-17.8 40.6c-1.3 2.8-4 4.5-6.1 3.9z" fill="#eb927a"/></g><ellipse cx="338.5" cy="326.1" fill="#333" rx="2.8" ry="2" transform="matrix(.5264 -.8502 .8502 .5264 -116.943 442.206)"/><path d="m337.1 355.4-10.7-11.4c-1.4-1.5-3.8-1.6-5.3-.2s-1.6 3.8-.2 5.3l8.8 9.3-.1.2-9.2-8.1c-1.6-1.4-3.9-1.2-5.3.3-1.4 1.6-1.2 3.9.3 5.3l.8.7c-1.6-1.2-3.8-1-5.1.5-1.4 1.6-1.2 3.9.3 5.3l12.5 11 .1.1c.1.1.3.2.5.3 0 0 .1 0 .1.1h.1c.2.1.3.2.5.2.1 0 .1 0 .2.1.1 0 .3.1.4.1h.2c.2 0 .4.1.6.1s.5 0 .7-.1h.1c.2 0 .4-.1.6-.2 0 0 .1 0 .1-.1l.6-.3c.2-.1.4-.3.5-.5l.1-.1c.1-.2.3-.3.4-.5l7.8-13c.9-1.4.7-3.2-.4-4.4z" fill="#e46948" fill-rule="nonzero"/><path d="m282.9 370.2s-9.3-6.2-11.2-16 4.4-19.3 4.4-19.3l-17.1-2.4-15.2 12.2 3.2 19 23.2 9.7z" fill="#28003a" fill-rule="nonzero"/><path d="m235.3 382.7c-4 0-8-1.4-11.2-4-4.5-3.7-6.9-9.5-6.3-15.3l6.4-61.7 1.5.2-6.4 61.7c-.5 5.3 1.6 10.6 5.7 14s9.7 4.6 14.8 3l42.7-11.9.4 1.4-42.7 11.9c-1.6.5-3.2.7-4.9.7z" fill="#333" fill-rule="nonzero"/><path d="m1373.2 142.5c-13.1-.1-20-5.1-19.9-14.4.1-7.5 5.2-11.4 15.2-11.2 6.2.1 12.3 1.5 18.3 2.9 5.7 1.3 11.1 2.6 16.2 2.7h.2c11.8 0 17.3-10 23.2-20.5 6.4-11.5 13-23.3 28.3-22.1 2.2.2 4.4.8 6.5 1.4 2.4.7 4.9 1.4 7.3 1.4h.3c14.9 0 23.7-9.7 33-20.1 11.1-12.3 23.6-26.2 48.8-26.2h.6c30.3.3 46.4 19.4 60.6 36.3 12.2 14.5 23.8 28.2 42.5 28.4h.2c7 0 11.8-3.4 17.4-7.3 6.6-4.6 14.2-9.9 26.8-9.9h.4c14.6.1 22.7 9.7 30.6 19 6.7 7.9 13.1 15.4 22.8 15.5 4.8.1 8.4-2.2 12.5-4.8 5.1-3.2 10.9-6.8 20.5-6.8h.3c21.6.2 30.8 14.7 30.8 22.1 0 2.6-1.3 6.4-7.1 9.2-6.1 2.9-16.2 4.4-29.9 4.3h-384.4c-17.3-.2-22 .1-22 .1zm-5-24.2c-9.1 0-13.3 3.1-13.4 9.8-.1 8.5 6.1 12.8 18.3 12.9.1 0 4.7-.3 22.2-.2h384.4c13.5.1 23.3-1.3 29.2-4.1 4.2-2 6.3-4.6 6.3-7.9.1-6.9-8.7-20.4-29.3-20.6-9.3-.1-15 3.5-20 6.6-4.2 2.6-8.1 5.1-13.4 5-10.5-.1-17-7.8-24-16-7.6-9-15.6-18.3-29.5-18.4h-.4c-12.1 0-19.1 4.9-25.9 9.6-5.6 3.9-10.9 7.6-18.3 7.6h-.2c-19.4-.2-31.2-14.1-43.6-28.9-14.7-17.4-29.9-35.5-59.5-35.7-24.9-.2-36.8 12.9-48.3 25.7-9.5 10.6-18.6 20.6-34.2 20.6h-.3c-2.6 0-5.2-.8-7.7-1.5-2.1-.6-4.2-1.2-6.3-1.4-14.3-1.2-20.4 9.7-26.9 21.3-5.8 10.5-11.9 21.3-24.5 21.3h-.2c-5.3 0-10.8-1.3-16.6-2.7-5.9-1.4-12-2.8-18-2.9.3-.1.2-.1.1-.1z" fill="#010101" fill-rule="nonzero"/><path d="m1393.1 82.5h-1.5c0-10.6-8.6-19.2-19.2-19.2v-1.5c9.5 0 17.5 6.4 19.9 15.1 2.4-8.7 10.4-15.1 19.9-15.1v1.5c-10.5 0-19.1 8.6-19.1 19.2z" fill="#010101" fill-rule="nonzero" transform="translate(-45.5909 -13.0462)"/><path d="m1393.1 82.5h-1.5c0-10.6-8.6-19.2-19.2-19.2v-1.5c9.5 0 17.5 6.4 19.9 15.1 2.4-8.7 10.4-15.1 19.9-15.1v1.5c-10.5 0-19.1 8.6-19.1 19.2z" fill="#010101" fill-rule="nonzero" transform="translate(-134.079 40.8044)"/><path d="m1393.1 82.5h-1.5c0-10.6-8.6-19.2-19.2-19.2v-1.5c9.5 0 17.5 6.4 19.9 15.1 2.4-8.7 10.4-15.1 19.9-15.1v1.5c-10.5 0-19.1 8.6-19.1 19.2z" fill="#010101" fill-rule="nonzero" transform="translate(61.6201 -34.792)"/><path d="m1393.1 82.5h-1.5c0-10.6-8.6-19.2-19.2-19.2v-1.5c9.5 0 17.5 6.4 19.9 15.1 2.4-8.7 10.4-15.1 19.9-15.1v1.5c-10.5 0-19.1 8.6-19.1 19.2z" fill="#010101" fill-rule="nonzero" transform="translate(-228.737 -38.4484)"/></svg>