<svg clip-rule="evenodd" fill-rule="evenodd" stroke-linejoin="round" stroke-miterlimit="2" viewBox="0 0 884 608" xmlns="http://www.w3.org/2000/svg"><path d="m930.734 274.341h-.125l-71.49 30.526-97.813 41.767c-.772.325-1.641.329-2.416.013l-100.915-41.867-73.246-30.39-.112-.049h-.125c-2.39.002-4.356 1.968-4.359 4.359v189.312c.003 2.39 1.969 4.356 4.359 4.359h346.242c2.39-.003 4.357-1.969 4.359-4.359v-189.312c-.002-2.391-1.969-4.357-4.359-4.359z" fill="#fff" fill-rule="nonzero" transform="translate(-158.016 -146.268)"/><path d="m931.045 275.586c-.127 0-.251-.039-.356-.112l-172.223-119.941c-1.071-.742-2.499-.74-3.567.006l-170.983 119.934c-.105.073-.229.112-.356.112-.342 0-.623-.281-.623-.623 0-.202.098-.392.263-.509l170.983-119.934c1.496-1.044 3.495-1.047 4.995-.008l172.223 119.941c.167.116.267.308.267.511 0 .342-.281.623-.623.623z" fill-rule="nonzero" transform="translate(-158.016 -146.268)"/><path d="m435.67 133.57 163.164-120.925 164.403 129.529-155.996 92.476-84.692-19.304z" fill="#e6e6e6" fill-rule="nonzero"/><path d="m687.725 438.037h-80.618c-.002 0-.004 0-.006 0-2.066 0-3.766-1.7-3.766-3.766 0-2.064 1.697-3.763 3.761-3.766h80.618.006c2.066 0 3.766 1.7 3.766 3.766 0 2.064-1.697 3.763-3.761 3.766z" fill="#e46948" fill-rule="nonzero" transform="translate(-158.016 -146.268)"/><path d="m636.038 421.846h-28.931c-.001 0-.002 0-.003 0-2.066 0-3.766-1.7-3.766-3.766 0-2.063 1.695-3.761 3.758-3.766h28.931.008c2.066 0 3.766 1.7 3.766 3.766 0 2.065-1.698 3.764-3.763 3.766z" fill="#e46948" fill-rule="nonzero" transform="translate(-158.016 -146.268)"/><path d="m759.145 347.191c-.613.001-1.22-.118-1.787-.35l-100.628-41.754v-130.696c.003-2.39 1.969-4.356 4.359-4.359h193.048c2.391.003 4.357 1.969 4.36 4.359v130.788l-.19.081-97.321 41.561c-.583.245-1.209.371-1.841.37z" fill="#fff" fill-rule="nonzero" transform="translate(-158.016 -146.268)"/><path d="m759.145 347.502c-.653.001-1.3-.126-1.905-.373l-100.822-41.834v-130.904c.003-2.561 2.11-4.668 4.671-4.67h193.048c2.561.002 4.668 2.109 4.671 4.67v130.993l-97.7 41.723c-.621.261-1.289.396-1.963.395zm-101.481-43.039 100.051 41.515c.932.378 1.978.372 2.907-.017l96.94-41.399v-130.171c-.002-1.878-1.547-3.423-3.425-3.425h-193.048c-1.878.002-3.423 1.547-3.425 3.425z" fill-rule="nonzero" transform="translate(-158.016 -146.268)"/><path d="m929.8 274.341h-.125l-71.49 30.526-97.813 41.767c-.772.325-1.642.329-2.417.013l-100.914-41.867-73.246-30.39-.112-.049h-.125c-2.39.002-4.357 1.968-4.359 4.359v189.312c.002 2.39 1.969 4.356 4.359 4.359h346.242c2.39-.003 4.356-1.969 4.359-4.359v-189.312c-.003-2.391-1.969-4.357-4.359-4.359zm3.113 193.671c0 1.708-1.405 3.113-3.113 3.113h-346.242c-1.708 0-3.113-1.405-3.114-3.113v-189.312c.003-1.663 1.334-3.047 2.996-3.114l73.601 30.539 100.435 41.674c1.087.442 2.306.435 3.388-.019l97.321-41.562 71.739-30.632c1.659.072 2.986 1.454 2.989 3.114z" fill-rule="nonzero" transform="translate(-158.016 -146.268)"/><path d="m743.479 218.887h-68.501c-2.731-.004-4.975-2.252-4.975-4.982 0-2.731 2.244-4.978 4.975-4.982h68.501c2.73.004 4.975 2.251 4.975 4.982 0 2.73-2.245 4.978-4.975 4.982z" fill="#e46948" fill-rule="nonzero" transform="translate(-158.016 -146.268)"/><path d="m707.983 197.714h-33.005c-2.733 0-4.982-2.249-4.982-4.982s2.249-4.982 4.982-4.982h33.005c2.733 0 4.982 2.249 4.982 4.982s-2.249 4.982-4.982 4.982z" fill="#e46948" fill-rule="nonzero" transform="translate(-158.016 -146.268)"/><path d="m808.847 268.706h-104.62c-2.73-.004-4.975-2.252-4.975-4.982 0-2.731 2.245-4.978 4.975-4.982h104.62c2.73.004 4.975 2.251 4.975 4.982 0 2.73-2.245 4.978-4.975 4.982z" fill="#ccc" fill-rule="nonzero" transform="translate(-158.016 -146.268)"/><path d="m808.847 291.747h-104.62c-2.733 0-4.982-2.249-4.982-4.982s2.249-4.982 4.982-4.982h104.62c2.733 0 4.982 2.249 4.982 4.982s-2.249 4.982-4.982 4.982z" fill="#ccc" fill-rule="nonzero" transform="translate(-158.016 -146.268)"/><circle cx="769.853" cy="129.878" fill="#e46948" r="47.371"/><path d="m765.339 149.875-14.178-18.231 8.245-6.413 6.713 8.632 22.679-23.941 7.584 7.185z" fill="#fff" fill-rule="nonzero"/><path d="m306.2 147.8c-14.3-13-36.4-13.4-51.1-.8-17.1 14.6-18.2 40.4-2.7 56.4 1 1 2 2 3.1 2.9-1.7 5.6-3.6 11.5-5.8 17.9l31.7 54.1c.2-21.1 1.7-39.4 3.2-53.4.6-5.5 4.2-10.3 9.4-12.2 4.8-1.8 9.3-4.6 13.2-8.4 15.8-15.5 15.7-41.3-1-56.5z" fill="#e46948" fill-rule="nonzero" transform="matrix(.771887 -.304684 .313226 .793526 -68.2043 156.33)"/><g transform="matrix(.771887 -.304684 .313226 .793526 -68.2043 156.33)"><circle cx="280.2" cy="176.4" fill="#e46948" r="38.7"/><g fill-rule="nonzero"><path d="m256.2 183.2-8.6 4.9c2.7 3.9 6.2 7.3 10.3 9.9-2.3 7.8-5 16.5-8.3 26l17.5 30-2.9-71.6z" fill="#a52c35" opacity=".5"/><path d="m281 176.6h-.3l-12.2-2.9c-.6-.1-1-.7-.8-1.4.1-.6.7-1 1.4-.8l12.2 2.9c.6.1 1 .7.8 1.4-.1.5-.6.8-1.1.8z" fill="#fff"/><path d="m307.5 182.8h-.3l-7.1-1.7c-.6-.1-1-.7-.8-1.4.1-.6.7-1 1.4-.8l7.1 1.7c.6.1 1 .7.8 1.4-.2.4-.6.8-1.1.8z" fill="#fff"/><path d="m317.2 195c-.8 0-1.7-.1-2.5-.3-2.9-.7-5.3-2.4-6.9-4.9s-2-5.5-1.4-8.4 2.4-5.3 4.9-6.9 5.5-2 8.4-1.4c5.9 1.4 9.6 7.4 8.3 13.3-.7 2.9-2.4 5.3-4.9 6.9-1.9 1.1-3.9 1.7-5.9 1.7zm-.1-19.9c-1.6 0-3.2.5-4.6 1.3-2 1.2-3.4 3.2-3.9 5.5s-.1 4.7 1.1 6.7 3.2 3.4 5.5 3.9 4.7.1 6.7-1.1 3.4-3.2 3.9-5.5c1.1-4.7-1.8-9.5-6.6-10.6-.7-.1-1.4-.2-2.1-.2z" fill="#fff"/><path d="m290.7 188.8c-.8 0-1.7-.1-2.5-.3-2.9-.7-5.3-2.4-6.9-4.9s-2-5.5-1.4-8.4c1.4-5.9 7.4-9.6 13.3-8.3 2.9.7 5.3 2.4 6.9 4.9s2 5.5 1.4 8.4c-.7 2.9-2.4 5.3-4.9 6.9-1.8 1.1-3.9 1.7-5.9 1.7zm0-19.9c-4 0-7.6 2.7-8.6 6.8-.5 2.3-.1 4.7 1.1 6.7s3.2 3.4 5.5 3.9 4.7.1 6.7-1.1 3.4-3.2 3.9-5.5.1-4.7-1.1-6.7-3.2-3.4-5.5-3.9c-.7-.1-1.3-.2-2-.2z" fill="#fff"/><path d="m301.4 195c-.3 0-.5 0-.8-.1-1.1-.3-2.249-1.141-2.649-2.241l-2.154-4.046 3.2-1.947 2.47 4.046 3.037-3.4 2.796 3.188-3.5 3.5c-.7.7-1.5 1-2.4 1z" fill="#f5a59b" transform="matrix(1.08569 0 0 .779672 -26.295 41.8869)"/><path d="m267.6 188.9-7.3-1.7c-4-.9-6.5-5-5.6-9s5-6.5 9-5.6l7.3 1.7z" fill="#e46948" transform="translate(0 1)"/></g></g><g fill-rule="nonzero"><path d="m311.9 187.6-2.1-.7c.1-.3.2-.6.3-.9.4-1 .6-1.7.6-2.7h2.2c0 1.4-.4 2.4-.8 3.5 0 .2-.1.5-.2.8z" fill="#010101" transform="matrix(.771887 -.304684 .313226 .793526 -68.2043 156.33)"/><path d="m295 184.4-2.1-.7c.1-.3.2-.6.3-.9.4-1 .6-1.7.6-2.7h2.2c0 1.4-.4 2.4-.8 3.5 0 .2-.1.5-.2.8z" fill="#010101" transform="matrix(.771887 -.304684 .313226 .793526 -68.2043 156.33)"/><path d="m397.781 556.121c-1.133-1.667-1.738-3.637-1.738-5.652 0-3.959 2.338-7.565 5.952-9.181l-3.081-35.601 16.326 8.848.423 32.452c.415 1.122.627 2.309.627 3.506 0 5.546-4.564 10.11-10.11 10.11-3.369 0-6.524-1.684-8.399-4.482z" fill="#e46948" transform="translate(-158.016 -146.268)"/><path d="m400.875 533.598-.133-.336-18.012-45.503-2.858-86.253.48-.034c.628-.045 1.257-.067 1.886-.067 14.034 0 25.753 11.163 26.435 25.181l2.642 46.374 7.488 59.642z" fill="#28003a" transform="translate(-158.016 -146.268)"/><path d="m127.8 577.505 10.354 6.565 30.247-36.815-15.282-9.688z" fill="#e46948"/><path d="m285.318 718.718 20.391 12.928h.001c7.128 4.52 9.275 14.105 4.756 21.234l-.268.422-33.386-21.166z" fill="#28003a" transform="translate(-158.016 -146.268)"/><path d="m225.692 595.15 12.26-.001 5.832-47.288-18.094.001z" fill="#e46948"/><path d="m380.581 737.415 24.145-.001c8.44.001 15.386 6.946 15.386 15.386v.5l-39.53.002z" fill="#28003a" transform="translate(-158.016 -146.268)"/><path d="m349.019 543.284 28.862 173.602s-5.677 14.195 2.839 16.088c8.517 1.892 27.443-1.893 27.443-1.893s5.678-14.195-2.839-16.087l-16.087-181.389z" fill="#333" transform="translate(-158.016 -146.268)"/><path d="m366.053 546.38-19.996 81.174-50.977 74.02s-18.926 1.893-8.517 12.302c10.409 10.41 15.141 11.356 15.141 11.356s16.087-1.893 15.141-9.463l62.673-73.771 29.118-98.457z" fill="#333" transform="translate(-158.016 -146.268)"/><path d="m348.603 553.529-4.829-27.558c-7.272-7.6 6.469-26.391 8.001-28.432l-.899-11.686c-.766-.131-1.467-.513-1.993-1.085-4.511-4.6-4.208-22.751-4.193-23.521l-4.978-51.785 12.386-7.226 31.322-1.01 15.296 13.257 14.733 135.352-.526.029z" fill="#28003a" transform="translate(-158.016 -146.268)"/><path d="m359.443 563.194c-3.037-1.812-4.903-5.098-4.903-8.635 0-2.42.874-4.761 2.46-6.589l-17.825-30.972 18.535 1.128 14.086 29.238c1.916 1.898 2.994 4.485 2.994 7.182 0 5.546-4.563 10.11-10.11 10.11-1.846 0-3.657-.505-5.237-1.462z" fill="#e46948" transform="translate(-158.016 -146.268)"/><path d="m343.658 534.233-15.377-35.644-2.57-72.811c-.179-4.869 2.373-9.451 6.607-11.862l17.739-10.84 3.827 76.544 11.447 45.747z" fill="#28003a" transform="translate(-158.016 -146.268)"/><path d="m196.224 305.464-1.228 43.811 15.242 32.126-14.014-77.102" fill-opacity=".2"/><g transform="translate(-163.007 -147.486)"><path d="m540.016 753.732h-381c-.549 0-1-.451-1-1s.451-1 1-1h381c.548 0 1 .451 1 1s-.452 1-1 1z" transform="matrix(1 0 0 .55853 1.01854 334.89)"/><path d="m487.352 193.546c-.308-.182-.659-.278-1.017-.278-1.097 0-1.999.903-1.999 1.999 0 .091.006.181.018.27l1.544 11.324c.022.167.01.336-.033.499-.049.16-.129.308-.238.436l-8.646 10.243c-.593.677-.646 1.679-.128 2.414l.01.013c.496.743 1.442 1.054 2.282.752l6.245-2.119c.421-.14.886-.035 1.207.271.238.221.373.53.373.855l.244 22.249c.005.653.332 1.263.874 1.628.539.365 1.224.445 1.832.214l46.607-17.825c.774-.294 1.288-1.039 1.288-1.867 0-.705-.374-1.36-.981-1.719l-.635-.377zm-2.209 1.883c-.007-.053-.01-.107-.01-.16 0-.659.542-1.201 1.201-1.201.215 0 .426.058.611.168l48.832 28.973.65.385c.362.217.585.609.585 1.031 0 .495-.306.941-.768 1.12l-46.607 17.825c-.136.051-.28.078-.426.078-.651 0-1.19-.532-1.198-1.184l-.244-22.249c0-.22-.037-.438-.111-.646l47.45 5.452c.033.004.066.007.099.007.439 0 .8-.361.8-.8 0-.293-.162-.564-.42-.704-.039-.022-.081-.04-.125-.054l-48.76-16.276c.011-.148.007-.296-.015-.442z" fill="#f1f1f1"/><path d="m487.352 193.546c-.308-.182-.659-.278-1.017-.278-1.097 0-1.999.903-1.999 1.999 0 .091.006.181.018.27l1.544 11.324c.022.167.01.336-.033.499-.049.16-.129.308-.238.436l-8.646 10.243c-.593.677-.646 1.679-.128 2.414l.01.013c.496.743 1.442 1.054 2.282.752l6.245-2.119c.421-.14.886-.035 1.207.271.238.221.373.53.373.855l.244 22.249c.005.653.332 1.263.874 1.628.539.365 1.224.445 1.832.214l46.607-17.825c.774-.294 1.288-1.039 1.288-1.867 0-.705-.374-1.36-.981-1.719l-.635-.377zm-2.209 1.883c-.007-.053-.01-.107-.01-.16 0-.659.542-1.201 1.201-1.201.215 0 .426.058.611.168l48.832 28.973.65.385c.362.217.585.609.585 1.031 0 .495-.306.941-.768 1.12l-46.607 17.825c-.136.051-.28.078-.426.078-.651 0-1.19-.532-1.198-1.184l-.244-22.249c0-.22-.037-.438-.112-.646-.104-.298-.28-.567-.511-.782-.032-.031-.067-.061-.102-.09l-.002-.003c-.532-.439-1.255-.572-1.908-.351l-6.248 2.122c-.505.183-1.075-.007-1.369-.456l-.004-.007c-.315-.439-.283-1.043.077-1.447l8.647-10.243c.092-.108.172-.225.238-.35l.004-.002c.064-.12.115-.247.152-.377.037-.127.061-.258.071-.389.011-.148.007-.296-.015-.442l-1.543-11.323z" fill="#e5e5e5"/><path d="m486.702 207.194 48.76 16.276c.044.014.086.032.125.054.258.14.42.411.42.704 0 .438-.361.799-.8.799-.033 0-.066-.002-.099-.006l-47.451-5.452-.838-.095.093-.793.13.013.002.003 48.154 5.529-48.719-16.267-.004.003-.21-.073.253-.758z" fill="#e5e5e5"/><path d="m1031.13 146.546-48.849 28.982-.634.377c-.608.359-.981 1.014-.981 1.719 0 .828.514 1.573 1.287 1.867l46.607 17.825c.61.231 1.29.151 1.83-.214s.87-.975.88-1.629l.24-22.248c0-.325.14-.635.37-.855.32-.306.79-.411 1.21-.271l6.25 2.119c.84.302 1.78-.009 2.28-.752l.01-.013c.51-.735.46-1.737-.13-2.414l-8.65-10.243c-.1-.128-.19-.276-.23-.436-.05-.163-.06-.332-.04-.499l1.55-11.324c.01-.089.01-.179.01-.27 0-1.096-.9-1.999-1.99-1.999-.36 0-.71.096-1.02.278zm2.21 1.883-1.55 11.323c-.02.146-.02.294-.01.442l-48.762 16.276c-.043.014-.085.032-.125.054-.258.14-.419.411-.419.704 0 .439.361.799.8.799.033 0 .066-.002.099-.006l47.447-5.452c-.07.208-.11.426-.11.646l-.24 22.249c-.01.652-.55 1.184-1.2 1.184-.15 0-.29-.027-.43-.078l-46.604-17.825c-.461-.179-.767-.625-.767-1.12 0-.422.222-.814.585-1.031l.65-.385 48.836-28.973c.18-.11.39-.168.61-.168.66 0 1.2.542 1.2 1.201 0 .053-.01.107-.01.159z" fill="#f1f1f1"/><path d="m1031.13 146.546-48.849 28.982-.634.377c-.608.359-.981 1.014-.981 1.719 0 .828.514 1.573 1.287 1.867l46.607 17.825c.61.231 1.29.151 1.83-.214s.87-.975.88-1.629l.24-22.248c0-.325.14-.635.37-.855.32-.306.79-.411 1.21-.271l6.25 2.119c.84.302 1.78-.009 2.28-.752l.01-.013c.51-.735.46-1.737-.13-2.414l-8.65-10.243c-.1-.128-.19-.276-.23-.436-.05-.163-.06-.332-.04-.499l1.55-11.324c.01-.089.01-.179.01-.27 0-1.096-.9-1.999-1.99-1.999-.36 0-.71.096-1.02.278zm2.21 1.883-1.55 11.323c-.02.146-.02.294-.01.442.01.131.03.262.07.389.04.13.09.257.15.376l.01.003c.06.125.14.242.23.35l8.65 10.243c.36.404.39 1.007.08 1.447l-.01.007c-.29.449-.86.639-1.37.456l-6.24-2.122c-.66-.221-1.38-.088-1.91.351v.003c-.04.029-.07.059-.1.09-.24.215-.41.484-.52.782-.07.208-.11.426-.11.646l-.24 22.249c-.01.652-.55 1.184-1.2 1.184-.15 0-.29-.027-.43-.078l-46.604-17.825c-.461-.179-.767-.625-.767-1.12 0-.422.222-.814.585-1.031l.65-.385 48.836-28.973c.18-.11.39-.168.61-.168.66 0 1.2.542 1.2 1.201 0 .053-.01.107-.01.159z" fill="#e5e5e5"/><path d="m1031.96 160.131.26.758-.21.073-.01-.003-48.718 16.267 48.158-5.529v-.003l.13-.013.09.793-.84.095-47.447 5.452c-.033.004-.066.007-.099.007-.439 0-.8-.361-.8-.8 0-.293.161-.564.419-.704.04-.022.082-.04.125-.054l48.762-16.276z" fill="#e5e5e5"/><path d="m613.142 551.49c-.667.341-1.088 1.03-1.088 1.779 0 .781.458 1.494 1.169 1.818l10.395 4.747c.153.071.29.171.404.295.11.126.192.274.242.434l4.037 12.782c.255.863 1.074 1.443 1.972 1.398l.016-.001c.893-.022 1.662-.655 1.856-1.527l1.545-6.411c.108-.43.445-.768.875-.875.314-.084.648-.032.922.141l18.935 11.684c.555.345 1.246.394 1.844.132.596-.261 1.03-.797 1.16-1.435l9.842-48.919c.027-.131.04-.264.04-.397 0-1.096-.902-1.998-1.997-1.998-.317 0-.629.075-.91.22l-.658.334zm.41 2.872c-.425-.195-.699-.623-.699-1.091 0-.45.253-.864.654-1.069l50.586-25.79.673-.343c.168-.085.353-.129.542-.129.659 0 1.201.542 1.201 1.201 0 .078-.008.155-.023.232l-9.842 48.919c-.113.556-.607.959-1.174.959-.222 0-.44-.061-.629-.177l-18.935-11.684c-.186-.118-.391-.203-.606-.251l29.967-37.192c.118-.143.182-.323.182-.508 0-.439-.361-.8-.8-.8-.137 0-.272.035-.391.102-.04.022-.078.048-.113.077l-39.816 32.515c-.118-.089-.246-.164-.381-.224z" fill="#f1f1f1"/><g fill="#e5e5e5"><path d="m613.142 551.49c-.667.341-1.088 1.03-1.088 1.779 0 .781.458 1.494 1.169 1.818l10.395 4.747c.153.071.29.171.404.295.11.126.192.274.242.434l4.037 12.782c.255.863 1.074 1.443 1.972 1.398l.016-.001c.893-.022 1.662-.655 1.856-1.527l1.545-6.411c.108-.43.445-.768.875-.875.314-.084.648-.032.922.141l18.935 11.684c.555.345 1.246.394 1.844.132.596-.261 1.03-.797 1.16-1.435l9.842-48.919c.027-.131.04-.264.04-.397 0-1.096-.902-1.998-1.997-1.998-.317 0-.629.075-.91.22l-.658.334zm.41 2.872c-.425-.195-.699-.623-.699-1.091 0-.45.253-.864.654-1.069l50.586-25.79.673-.343c.168-.085.353-.129.542-.129.659 0 1.201.542 1.201 1.201 0 .078-.008.155-.023.232l-9.842 48.919c-.113.556-.607.959-1.174.959-.222 0-.44-.061-.629-.177l-18.935-11.684c-.186-.118-.391-.203-.606-.251-.308-.071-.629-.066-.935.014-.043.01-.086.024-.13.038h-.004c-.655.215-1.154.755-1.316 1.425l-1.545 6.415c-.115.525-.58.905-1.118.913l-.008.001c-.539.031-1.033-.319-1.182-.839l-4.036-12.783c-.042-.135-.098-.266-.168-.388l-.001-.004c-.067-.119-.146-.229-.237-.33-.087-.1-.185-.19-.291-.268-.118-.089-.246-.164-.381-.224z"/><path d="m624.329 559.333 39.816-32.515c.035-.029.073-.055.113-.077.119-.067.254-.102.391-.102.439 0 .8.361.8.8 0 .185-.064.365-.182.508l-29.967 37.192-.528.657-.62-.502.079-.103h.004l30.408-37.746-39.786 32.486.001.004-.174.139-.506-.619z"/></g></g></g></svg>